<?xml version="1.0" encoding="utf-8"?>
<svg viewBox="0 0 500 500" width="500" height="500" xmlns="http://www.w3.org/2000/svg" xmlns:bx="https://boxy-svg.com">
  <path d="M 291.815 528 C 207.273 528 141.048 515.846 141.048 500.331 C 141.048 484.815 207.273 472.661 291.815 472.661 C 376.358 472.661 442.583 484.815 442.583 500.331 C 442.583 515.846 376.358 528 291.815 528 Z M 291.815 474.081 C 210.826 474.081 142.403 486.102 142.403 500.331 C 142.403 514.56 210.826 526.581 291.815 526.581 C 372.805 526.581 441.227 514.56 441.227 500.331 C 441.227 486.102 372.805 474.081 291.815 474.081 Z" fill="#f2f2f2" style=""/>
  <path d="M 466.578 289.669 C 466.588 303.851 465.257 318 462.607 331.909 C 462.201 334.052 461.761 336.185 461.286 338.309 C 461.008 339.586 460.717 340.858 460.413 342.126 C 460.215 342.949 460.013 343.772 459.802 344.595 C 444.545 404.832 405.122 455.201 351.711 482.7 C 343.046 487.166 334.089 490.976 324.904 494.101 C 323.509 494.576 322.106 495.037 320.697 495.484 L 320.689 495.484 C 301.418 501.572 281.394 504.656 261.263 504.637 C 258.377 504.637 255.531 504.567 252.725 504.43 C 245.132 504.083 237.569 503.204 230.087 501.798 C 138.142 484.402 93.103 389.603 55.949 289.669 C 55.027 287.192 54.121 284.733 53.232 282.29 C 53.015 281.687 52.798 281.084 52.581 280.482 C -46.241 6.882 60.929 -62.354 261.263 74.7 C 356.19 139.637 466.578 170.947 466.578 289.669 Z" fill="#f2f2f2" style=""/>
  <path d="M 324.667 418.045 L 323.728 417.022 C 323.875 416.873 338.538 401.837 344.121 373.739 C 349.279 347.788 347.528 305.062 309.895 248.878 C 281.033 205.787 269.353 168.142 275.18 136.984 C 280.3 109.61 297.711 97.586 297.886 97.468 L 298.621 98.66 C 298.45 98.775 281.496 110.517 276.502 137.3 C 270.769 168.056 282.376 205.323 311.005 248.063 C 327.747 273.059 338.892 297.537 344.131 320.817 C 348.329 339.473 348.766 357.406 345.43 374.119 C 339.742 402.612 324.817 417.893 324.667 418.045 Z" fill="#f2f2f2" style=""/>
  <path d="M 180.992 484.025 L 180.052 483.003 C 180.239 482.816 198.724 463.863 205.768 428.448 C 212.275 395.743 210.077 341.899 162.663 271.11 C 142.852 241.533 129.342 213.588 122.508 188.053 C 116.924 167.187 115.742 147.791 118.994 130.402 C 125.423 96.021 147.278 80.928 147.498 80.779 L 148.232 81.972 C 148.016 82.117 126.619 96.928 120.316 130.719 C 113.083 169.487 127.705 216.447 163.773 270.295 C 184.834 301.74 198.853 332.53 205.443 361.812 C 210.722 385.27 211.272 407.817 207.078 428.828 C 199.929 464.64 181.18 483.835 180.992 484.025 Z" fill="#fff" style=""/>
  <circle cx="199.118" cy="-15.49" r="88.201" fill="#fff" transform="matrix(0.594735, 0, 0, 0.622697, 17.073902, 114.687309)" style=""/>
  <path d="M 147.865 156.209 C 92.845 156.209 58.458 93.848 85.968 43.96 C 113.477 -5.929 182.251 -5.929 209.761 43.96 C 216.035 55.335 219.337 68.241 219.337 81.376 C 219.293 122.685 187.32 156.162 147.865 156.209 Z M 147.865 7.962 C 93.888 7.962 60.153 69.141 87.141 118.083 C 114.129 167.026 181.6 167.026 208.588 118.083 C 214.742 106.923 217.982 94.262 217.982 81.376 C 217.937 40.849 186.571 8.008 147.865 7.962 Z" fill="#fff" style=""/>
  <circle cx="287.32" cy="184.577" r="73.143" fill="#fff" transform="matrix(0.594735, 0, 0, 0.622697, 17.073902, 114.687309)" style=""/>
  <circle cx="250.031" cy="438.424" r="73.143" fill="#fff" transform="matrix(0.594735, 0, 0, 0.622697, 17.073902, 114.687309)" style=""/>
  <path d="M 460.413 342.126 C 459.958 339.672 459.49 337.249 459.009 334.861 C 459.006 334.861 459.003 334.858 459.003 334.854 C 452.918 304.624 444.718 279.836 435.008 259.615 L 409.28 250.35 L 428.673 247.448 C 420.833 233.521 412.194 222.112 403.012 212.854 L 355.755 218.509 L 391.425 202.503 C 325.874 150.876 239.933 192.343 216.515 205.377 C 213.303 207.158 211.269 208.414 210.62 208.817 C 210.612 208.817 210.612 208.817 210.606 208.825 C 210.463 208.917 210.396 208.959 210.396 208.959 L 223.69 216.188 L 223.697 216.188 L 459.802 344.595 Z" fill="#ff63a6" style=""/>
  <path d="M 460.413 342.126 C 460.717 340.856 461.008 339.584 461.286 338.309 C 460.595 337.252 459.836 336.096 459.009 334.861 C 459.006 334.861 459.003 334.858 459.003 334.854 C 431.776 294.095 331.978 160.914 217.022 206.122 L 217.016 206.122 C 214.888 206.959 212.756 207.858 210.62 208.817 C 210.612 208.817 210.612 208.817 210.606 208.825 C 208.66 209.697 206.713 210.624 204.764 211.605 C 203.775 212.095 202.792 212.607 201.804 213.124 C 200.943 213.578 200.089 214.039 199.229 214.515 C 199.229 214.515 194.336 215.798 188.855 220.637 C 178.087 230.159 165.036 253.422 182.329 307.739 C 182.329 307.739 197.684 352.74 190.006 373.64 C 182.329 394.528 229.931 418.635 243.734 373.64 C 257.551 328.632 262.164 285.234 262.164 285.234 C 262.164 285.234 278.048 320.274 276.483 355.414 C 275.839 369.816 277.065 384.233 280.772 398.103 C 281.151 399.557 281.565 401.012 281.978 402.487 C 286.972 420.047 294.764 442.636 306.243 464.481 C 311.651 474.889 317.894 484.799 324.904 494.101 C 334.089 490.976 343.046 487.166 351.71 482.7 C 405.122 455.201 444.545 404.832 459.802 344.595 Z" fill="#3f3d56" style=""/>
  <polygon points="203.828 230.588 197.687 177.548 223.784 216.122 203.828 230.588" fill="#3f3d56" style=""/>
  <polygon points="190.446 234.409 184.306 181.369 210.403 219.943 190.446 234.409" fill="#3f3d56" style=""/>
  <polygon points="177.08 283.833 111.512 194.6 177.918 257.033 177.08 283.833" fill="#ff63a6" style=""/>
  <polygon points="199.533 188.114 199.531 188.114 215.621 205.114 205.226 207.898" style="fill: rgb(255, 99, 166);" transform="matrix(0.98692, 0.161208, -0.161208, 0.98692, 34.459122, -30.879547)" bx:origin="0.497 0.445"/>
  <polygon points="185.709 192.008 185.704 192.002 199.545 207.199 194.053 217.455" style="fill: rgb(255, 99, 166);" transform="matrix(0.98692, 0.161208, -0.161208, 0.98692, 35.297112, -28.386482)" bx:origin="0.497 0.445"/>
  <rect x="198.487" y="200.62" width="15.172" height="15.885" fill="#6c63ff" opacity="0.2" style=""/>
  <path d="M 219.493 204.949 L 234.398 200.62 L 234.398 216.505 L 219.226 216.505 L 219.493 204.949 Z" fill="#6c63ff" style=""/>
  <rect x="239.958" y="200.62" width="15.172" height="15.885" fill="#6c63ff" opacity="0.2" style=""/>
  <rect x="260.696" y="200.62" width="15.172" height="15.885" fill="#6c63ff" opacity="0.2" style=""/>
  <rect x="281.429" y="200.62" width="15.172" height="15.885" fill="#6c63ff" opacity="0.2" style=""/>
  <path d="M 302.167 202.156 L 317.339 207.184 L 317.339 216.505 L 302.167 216.505 L 302.167 202.156 Z" fill="#6c63ff" style=""/>
  <path d="M 322.772 209.279 L 330.874 212.911 L 338.077 216.505 L 322.905 216.505 L 322.772 209.279 Z" fill="#6c63ff" opacity="0.2" style=""/>
  <path d="M 187.62 220.46 L 193.721 220.459 L 192.92 236.623 L 177.748 236.623 L 187.62 220.46 Z" fill="#6c63ff" opacity="0.2" style=""/>
  <rect x="198.487" y="220.739" width="15.172" height="15.885" fill="#6c63ff" opacity="0.4" style=""/>
  <rect x="219.226" y="220.739" width="15.172" height="15.885" fill="#6c63ff" style=""/>
  <rect x="239.958" y="220.739" width="15.172" height="15.885" fill="#6c63ff" opacity="0.4" style=""/>
  <rect x="260.696" y="220.739" width="15.172" height="15.885" fill="#6c63ff" opacity="0.2" style=""/>
  <rect x="281.429" y="220.739" width="15.172" height="15.885" fill="#6c63ff" opacity="0.4" style=""/>
  <rect x="302.167" y="220.739" width="15.172" height="15.885" fill="#6c63ff" style=""/>
  <rect x="322.905" y="220.739" width="15.172" height="15.885" fill="#6c63ff" opacity="0.4" style=""/>
  <path d="M 343.638 220.041 L 358.809 229.259 L 358.809 236.623 L 343.638 236.623 L 343.638 220.041 Z" fill="#6c63ff" opacity="0.4" style=""/>
  <path d="M 364.51 233.17 L 366.208 234.706 L 368.876 236.763 L 364.376 236.623 L 364.51 233.17 Z" fill="#6c63ff" opacity="0.2" style=""/>
  <rect x="177.748" y="240.865" width="15.172" height="15.885" fill="#6c63ff" opacity="0.2" style=""/>
  <rect x="198.487" y="240.865" width="15.172" height="15.885" fill="#6c63ff" opacity="0.4" style=""/>
  <rect x="219.226" y="240.865" width="15.172" height="15.885" fill="#6c63ff" opacity="0.4" style=""/>
  <rect x="239.958" y="240.865" width="15.172" height="15.885" fill="#6c63ff" style=""/>
  <rect x="260.696" y="240.865" width="15.172" height="15.885" fill="#6c63ff" opacity="0.2" style=""/>
  <rect x="281.429" y="240.865" width="15.172" height="15.885" fill="#6c63ff" opacity="0.4" style=""/>
  <rect x="302.167" y="240.865" width="15.172" height="15.885" fill="#6c63ff" style=""/>
  <rect x="322.905" y="240.865" width="15.172" height="15.885" fill="#6c63ff" opacity="0.2" style=""/>
  <rect x="343.638" y="240.865" width="15.172" height="15.885" fill="#6c63ff" opacity="0.4" style=""/>
  <rect x="364.376" y="240.865" width="15.172" height="15.885" fill="#6c63ff" opacity="0.2" style=""/>
  <path d="M 385.248 249.664 L 388.548 252.457 L 393.351 257.029 L 385.115 256.75 L 385.248 249.664 Z" fill="#6c63ff" style=""/>
  <rect x="177.748" y="260.984" width="15.172" height="15.885" fill="#6c63ff" opacity="0.2" style=""/>
  <rect x="198.487" y="260.984" width="15.172" height="15.885" fill="#6c63ff" opacity="0.2" style=""/>
  <rect x="219.226" y="260.984" width="15.172" height="15.885" fill="#6c63ff" opacity="0.4" style=""/>
  <rect x="239.958" y="260.984" width="15.172" height="15.885" fill="#6c63ff" opacity="0.4" style=""/>
  <rect x="260.696" y="260.984" width="15.172" height="15.885" fill="#6c63ff" style=""/>
  <rect x="281.429" y="260.984" width="15.172" height="15.885" fill="#6c63ff" opacity="0.2" style=""/>
  <rect x="302.167" y="260.984" width="15.172" height="15.885" fill="#6c63ff" opacity="0.4" style=""/>
  <rect x="322.905" y="260.984" width="15.172" height="15.885" fill="#6c63ff" opacity="0.4" style=""/>
  <rect x="343.638" y="260.984" width="15.172" height="15.885" fill="#6c63ff" opacity="0.4" style=""/>
  <rect x="364.376" y="260.984" width="15.172" height="15.885" fill="#6c63ff" opacity="0.4" style=""/>
  <rect x="385.115" y="260.984" width="15.172" height="15.885" fill="#6c63ff" opacity="0.2" style=""/>
  <path d="M 405.848 269.364 L 408.48 272.017 L 412.882 276.728 L 405.848 276.869 L 405.848 269.364 Z" fill="#6c63ff" opacity="0.2" style=""/>
  <rect x="177.748" y="281.109" width="15.172" height="15.885" fill="#6c63ff" opacity="0.2" style=""/>
  <rect x="198.487" y="281.109" width="15.172" height="15.885" fill="#6c63ff" opacity="0.2" style=""/>
  <rect x="219.226" y="281.109" width="15.172" height="15.885" fill="#6c63ff" opacity="0.4" style=""/>
  <rect x="239.958" y="281.109" width="15.172" height="15.885" fill="#6c63ff" style=""/>
  <path d="M 260.696 281.109 L 275.868 281.109 L 275.868 296.995 L 266.88 297.296 L 260.696 281.109 Z" fill="#6c63ff" opacity="0.2" style=""/>
  <rect x="281.429" y="281.109" width="15.172" height="15.885" fill="#6c63ff" style=""/>
  <rect x="302.167" y="281.109" width="15.172" height="15.885" fill="#6c63ff" style=""/>
  <rect x="322.905" y="281.109" width="15.172" height="15.885" fill="#6c63ff" style=""/>
  <rect x="343.638" y="281.109" width="15.172" height="15.885" fill="#6c63ff" opacity="0.2" style=""/>
  <rect x="364.376" y="281.109" width="15.172" height="15.885" fill="#6c63ff" style=""/>
  <rect x="385.115" y="281.109" width="15.172" height="15.885" fill="#6c63ff" opacity="0.2" style=""/>
  <path d="M 405.848 281.109 L 421.019 281.109 L 421.019 296.995 L 405.848 296.995 L 405.848 281.109 Z" fill="#6c63ff" opacity="0.2" style=""/>
  <path d="M 426.586 291.864 L 428.818 294.099 L 430.953 297.134 L 426.586 296.995 L 426.586 291.864 Z" fill="#6c63ff" opacity="0.2" style=""/>
  <path d="M 180.284 301.089 L 192.92 301.228 L 192.92 317.114 L 185.618 317.393 L 180.284 301.089 Z" fill="#6c63ff" opacity="0.2" style=""/>
  <rect x="198.487" y="301.228" width="15.172" height="15.885" fill="#6c63ff" opacity="0.2" style=""/>
  <rect x="219.226" y="301.228" width="15.172" height="15.885" fill="#6c63ff" opacity="0.2" style=""/>
  <rect x="239.958" y="301.228" width="15.172" height="15.885" fill="#6c63ff" style=""/>
  <path d="M 268.462 300.927 L 275.868 301.228 L 275.868 317.114 L 272.776 317.716 L 268.462 300.927 Z" fill="#6c63ff" opacity="0.2" style=""/>
  <rect x="281.429" y="301.228" width="15.172" height="15.885" fill="#6c63ff" style=""/>
  <rect x="302.167" y="301.228" width="15.172" height="15.885" fill="#6c63ff" style=""/>
  <rect x="322.905" y="301.228" width="15.172" height="15.885" fill="#6c63ff" opacity="0.2" style=""/>
  <rect x="343.638" y="301.228" width="15.172" height="15.885" fill="#6c63ff" opacity="0.2" style=""/>
  <rect x="364.376" y="301.228" width="15.172" height="15.885" fill="#6c63ff" opacity="0.2" style=""/>
  <rect x="385.115" y="301.228" width="15.172" height="15.885" fill="#6c63ff" opacity="0.2" style=""/>
  <rect x="405.848" y="301.228" width="15.172" height="15.885" fill="#6c63ff" opacity="0.2" style=""/>
  <path d="M 426.586 301.228 L 434.822 301.228 L 446.693 316.974 L 426.586 317.114 L 426.586 301.228 Z" fill="#6c63ff" opacity="0.2" style=""/>
  <path d="M 186.286 321.634 L 192.92 321.354 L 192.92 337.239 L 190.155 336.96 L 186.286 321.634 Z" fill="#6c63ff" opacity="0.2" style=""/>
  <rect x="198.487" y="321.354" width="15.172" height="15.885" fill="#6c63ff" opacity="0.2" style=""/>
  <rect x="219.226" y="321.354" width="15.172" height="15.885" fill="#6c63ff" opacity="0.2" style=""/>
  <rect x="239.958" y="321.354" width="15.172" height="15.885" fill="#6c63ff" opacity="0.2" style=""/>
  <rect x="281.429" y="321.354" width="15.172" height="15.885" fill="#6c63ff" opacity="0.2" style=""/>
  <rect x="302.167" y="321.354" width="15.172" height="15.885" fill="#6c63ff" opacity="0.2" style=""/>
  <rect x="322.905" y="321.354" width="15.172" height="15.885" fill="#6c63ff" opacity="0.2" style=""/>
  <rect x="343.638" y="321.354" width="15.172" height="15.885" fill="#6c63ff" style=""/>
  <rect x="364.376" y="321.354" width="15.172" height="15.885" fill="#6c63ff" opacity="0.2" style=""/>
  <rect x="385.115" y="321.354" width="15.172" height="15.885" fill="#6c63ff" opacity="0.2" style=""/>
  <rect x="405.848" y="321.354" width="15.172" height="15.885" fill="#6c63ff" opacity="0.2" style=""/>
  <rect x="426.586" y="321.354" width="15.172" height="15.885" fill="#6c63ff" opacity="0.2" style=""/>
  <path d="M 447.318 321.354 L 449.519 321.354 L 460.423 337.239 L 447.318 337.239 L 447.318 321.354 Z" fill="#6c63ff" opacity="0.2" style="stroke-linecap: round; stroke-linejoin: round;"/>
  <path d="M 190.981 343.839 L 193.079 343.839 L 193.079 359.724 L 192.448 359.724 L 190.981 343.839 Z" fill="#6c63ff" opacity="0.2" style=""/>
  <rect x="198.646" y="343.839" width="15.172" height="15.885" fill="#6c63ff" opacity="0.2" style=""/>
  <rect x="219.385" y="343.839" width="15.172" height="15.885" fill="#6c63ff" style=""/>
  <path d="M 240.118 343.839 L 251.954 343.839 L 247.552 359.724 L 240.118 359.724 L 240.118 343.839 Z" fill="#6c63ff" opacity="0.2" style=""/>
  <rect x="281.588" y="343.839" width="15.172" height="15.885" fill="#6c63ff" opacity="0.2" style=""/>
  <rect x="302.326" y="343.839" width="15.172" height="15.885" fill="#6c63ff" style=""/>
  <rect x="323.065" y="343.839" width="15.172" height="15.885" fill="#6c63ff" opacity="0.2" style=""/>
  <rect x="343.797" y="343.839" width="15.172" height="15.885" fill="#6c63ff" opacity="0.2" style=""/>
  <rect x="364.536" y="343.839" width="15.172" height="15.885" fill="#6c63ff" opacity="0.2" style=""/>
  <rect x="385.274" y="343.839" width="15.172" height="15.885" fill="#6c63ff" opacity="0.2" style=""/>
  <rect x="406.006" y="343.839" width="15.172" height="15.885" fill="#6c63ff" opacity="0.2" style=""/>
  <rect x="426.745" y="343.839" width="15.172" height="15.885" fill="#6c63ff" opacity="0.2" style=""/>
  <path d="M 447.477 343.839 L 459.894 343.839 L 455.532 359.245 L 447.477 359.724 L 447.477 343.839 Z" fill="#6c63ff" style=""/>
  <path d="M 191.514 363.959 L 193.079 363.959 L 193.079 379.844 L 189.113 379.983 L 191.514 363.959 Z" fill="#6c63ff" opacity="0.2" style=""/>
  <rect x="198.646" y="363.959" width="15.172" height="15.885" fill="#6c63ff" opacity="0.4" style=""/>
  <rect x="219.385" y="363.959" width="15.172" height="15.885" fill="#6c63ff" style=""/>
  <path d="M 240.118 363.959 L 246.484 363.82 L 241.549 379.565 L 240.118 379.844 L 240.118 363.959 Z" fill="#6c63ff" opacity="0.4" style=""/>
  <rect x="281.588" y="363.959" width="15.172" height="15.885" fill="#6c63ff" opacity="0.4" style=""/>
  <rect x="302.326" y="363.959" width="15.172" height="15.885" fill="#6c63ff" style=""/>
  <rect x="323.065" y="363.959" width="15.172" height="15.885" fill="#6c63ff" opacity="0.4" style=""/>
  <rect x="343.797" y="363.959" width="15.172" height="15.885" fill="#6c63ff" opacity="0.4" style=""/>
  <rect x="364.536" y="363.959" width="15.172" height="15.885" fill="#6c63ff" opacity="0.2" style=""/>
  <rect x="385.274" y="363.959" width="15.172" height="15.885" fill="#6c63ff" opacity="0.4" style=""/>
  <rect x="406.006" y="363.959" width="15.172" height="15.885" fill="#6c63ff" opacity="0.4" style=""/>
  <rect x="426.745" y="363.959" width="15.172" height="15.885" fill="#6c63ff" opacity="0.2" style=""/>
  <path d="M 447.477 363.959 L 453.696 364.199 L 447.498 379.964 L 447.477 379.844 L 447.477 363.959 Z" fill="#6c63ff" opacity="0.2" style=""/>
  <path d="M 198.646 384.085 L 213.817 384.085 L 213.817 399.969 L 198.513 394.383 L 198.646 384.085 Z" fill="#6c63ff" opacity="0.4" style=""/>
  <path d="M 219.385 384.085 L 234.557 384.085 L 234.557 391.171 L 219.385 399.969 L 219.385 384.085 Z" fill="#6c63ff" opacity="0.4" style=""/>
  <rect x="281.588" y="384.085" width="15.172" height="15.885" fill="#6c63ff" opacity="0.4" style=""/>
  <rect x="302.326" y="384.085" width="15.172" height="15.885" fill="#6c63ff" style=""/>
  <rect x="323.065" y="384.085" width="15.172" height="15.885" fill="#6c63ff" opacity="0.2" style=""/>
  <rect x="343.797" y="384.085" width="15.172" height="15.885" fill="#6c63ff" opacity="0.4" style=""/>
  <rect x="364.536" y="384.085" width="15.172" height="15.885" fill="#6c63ff" opacity="0.2" style=""/>
  <rect x="385.274" y="384.085" width="15.172" height="15.885" fill="#6c63ff" style=""/>
  <rect x="406.006" y="384.085" width="15.172" height="15.885" fill="#6c63ff" opacity="0.2" style=""/>
  <path d="M 445.819 384.085 L 437.784 399.729 L 426.745 399.969 L 426.745 384.085 L 445.819 384.085 Z" fill="#6c63ff" opacity="0.7" style=""/>
  <path d="M 442.214 383.773 L 442.214 400.281 L 426.447 400.281 L 426.447 383.773 Z M 427.042 399.658 L 441.62 399.658 L 441.62 384.396 L 427.042 384.396 Z" style="fill: none;"/>
  <path d="M 442.214 383.773 L 442.214 400.281 L 426.447 400.281 L 426.447 383.773 Z M 427.042 399.658 L 441.62 399.658 L 441.62 384.396 L 427.042 384.396 Z" style="fill: none;"/>
  <path d="M 442.214 383.773 L 442.214 400.281 L 426.447 400.281 L 426.447 383.773 Z M 427.042 399.658 L 441.62 399.658 L 441.62 384.396 L 427.042 384.396 Z" style="fill: none;"/>
  <path d="M 442.214 383.773 L 442.214 400.281 L 426.447 400.281 L 426.447 383.773 Z M 427.042 399.658 L 441.62 399.658 L 441.62 384.396 L 427.042 384.396 Z" style="fill: none;"/>
  <path d="M 442.214 383.773 L 442.214 400.281 L 426.447 400.281 L 426.447 383.773 Z M 427.042 399.658 L 441.62 399.658 L 441.62 384.396 L 427.042 384.396 Z" style="fill: none;"/>
  <path d="M 442.214 383.773 L 442.214 400.281 L 426.447 400.281 L 426.447 383.773 Z M 427.042 399.658 L 441.62 399.658 L 441.62 384.396 L 427.042 384.396 Z" style="fill: none;"/>
  <path d="M 282.738 404.204 L 296.759 404.204 L 296.759 420.089 L 287.484 419.939 L 282.738 404.204 Z" fill="#6c63ff" opacity="0.2" style=""/>
  <rect x="302.326" y="404.204" width="15.172" height="15.885" fill="#6c63ff" opacity="0.4" style=""/>
  <rect x="323.065" y="404.204" width="15.172" height="15.885" fill="#6c63ff" opacity="0.4" style=""/>
  <rect x="343.797" y="404.204" width="15.172" height="15.885" fill="#6c63ff" opacity="0.4" style=""/>
  <rect x="364.536" y="404.204" width="15.172" height="15.885" fill="#6c63ff" opacity="0.4" style=""/>
  <rect x="385.274" y="404.204" width="15.172" height="15.885" fill="#6c63ff" opacity="0.2" style=""/>
  <rect x="406.006" y="404.204" width="15.172" height="15.885" fill="#6c63ff" opacity="0.2" style=""/>
  <path d="M 426.745 404.204 L 434.8 404.324 L 426.421 417.325 L 426.4 417.565 L 426.745 404.204 Z" fill="#6c63ff" opacity="0.2" style=""/>
  <path d="M 288.778 423.879 L 296.759 424.33 L 296.759 440.215 L 294.817 440.064 L 288.778 423.879 Z" fill="#6c63ff" style=""/>
  <rect x="302.326" y="424.33" width="15.172" height="15.885" fill="#6c63ff" style=""/>
  <rect x="323.065" y="424.33" width="15.172" height="15.885" fill="#6c63ff" style=""/>
  <rect x="343.797" y="424.33" width="15.172" height="15.885" fill="#6c63ff" opacity="0.2" style=""/>
  <rect x="364.536" y="424.33" width="15.172" height="15.885" fill="#6c63ff" style=""/>
  <rect x="385.274" y="424.33" width="15.172" height="15.885" fill="#6c63ff" opacity="0.2" style=""/>
  <path d="M 406.006 424.33 L 421.178 424.33 L 414.044 433.259 L 406.13 441.76 L 406.006 424.33 Z" fill="#6c63ff" opacity="0.2" style=""/>
  <rect x="302.326" y="444.449" width="15.172" height="15.885" fill="#6c63ff" style=""/>
  <rect x="323.065" y="444.449" width="15.172" height="15.885" fill="#6c63ff" opacity="0.2" style=""/>
  <rect x="343.797" y="444.449" width="15.172" height="15.885" fill="#6c63ff" opacity="0.2" style=""/>
  <rect x="364.536" y="444.449" width="15.172" height="15.885" fill="#6c63ff" opacity="0.2" style=""/>
  <path d="M 385.274 444.449 L 403.767 444.578 L 394.787 453.122 L 385.151 460.849 L 385.274 444.449 Z" fill="#6c63ff" opacity="0.2" style=""/>
  <path d="M 306.352 464.574 L 317.498 464.574 L 316.779 481.664 L 312.392 474.739 L 306.352 464.574 Z" fill="#6c63ff" opacity="0.2" style=""/>
  <rect x="323.065" y="464.574" width="15.172" height="15.885" fill="#6c63ff" opacity="0.2" style=""/>
  <path d="M 343.797 464.574 L 358.969 464.574 L 358.969 480.46 L 343.797 480.46 L 343.797 464.574 Z" fill="#6c63ff" style=""/>
  <path d="M 364.536 464.574 L 380.445 464.703 L 368.759 472.732 L 364.536 475.694 L 364.536 464.574 Z" fill="#6c63ff" opacity="0.2" style=""/>
  <path d="M 223.268 181.291 C 222.599 181.958 222.48 182.139 222.038 183.019 C 221.782 183.53 220.807 183.741 220.665 184.027 C 220.518 184.318 220.451 184.523 220.303 184.818 C 220.166 185.09 218.82 185.052 218.567 185.178 C 218.078 185.421 217.704 186.541 217.338 186.905 C 217.012 187.23 215.943 187.142 215.603 187.481 C 215.205 187.876 215.088 188.496 214.663 188.92 C 214.377 189.205 213.685 189.64 213.505 189.999 C 213.208 190.59 211.912 189.851 211.697 189.423 C 211.559 189.149 211.257 188.429 211.119 188.704 C 210.937 189.066 210.774 189.096 211.047 189.64 C 211.089 189.724 211.505 190.047 211.408 190.143 C 211.282 190.269 210.379 190.143 210.179 190.143 C 209.69 190.143 208.292 190.51 207.937 190.863 C 207.85 190.949 209.137 191.267 208.877 191.655 C 208.573 192.108 207.382 192.29 206.925 192.518 C 206.722 192.619 206.888 192.807 206.78 193.022 C 206.644 193.292 206.231 193.771 205.84 194.03 C 205.57 194.209 205.4 193.891 205.333 193.957 C 205.058 194.232 204.466 194.605 204.177 194.893 C 204.027 195.043 202.837 195.026 202.586 195.109 C 202.408 195.168 202.421 195.404 202.224 195.469 C 201.942 195.563 200.822 195.425 200.634 195.613 C 200.443 195.802 200.915 196.268 200.634 196.549 C 200.474 196.707 199.867 196.664 199.693 196.836 C 199.647 196.882 200.449 197.236 200.272 197.412 C 199.916 197.766 199.47 198.566 199.042 198.779 C 198.731 198.934 198.135 198.354 197.958 198.708 C 197.714 199.19 196.941 200.29 196.125 200.275 C 196.125 200.551 195.952 200.613 195.764 200.706 C 195.693 200.742 195.362 201.53 194.969 201.138 C 194.791 200.961 194.465 200.165 193.812 200.491 C 193.653 200.569 193.607 201.366 193.594 201.354 C 193.383 201.144 192.741 200.88 192.582 200.562 C 192.505 200.408 192.619 200.239 192.51 200.131 C 192.493 200.113 191.896 200.095 191.859 200.131 C 191.69 200.299 192.028 200.97 191.859 201.138 C 191.739 201.258 191.401 201.162 191.281 201.282 C 190.991 201.57 191.842 201.913 191.859 201.93 C 192.017 202.087 191.756 202.733 191.859 202.937 C 191.918 203.055 192.148 203.748 192.148 203.801 C 192.148 203.841 190.868 203.775 190.774 203.729 C 190.35 203.518 190.456 203.196 190.196 202.937 C 190.027 202.77 189.352 203.105 189.183 202.937 C 189.004 202.759 187.773 201.462 187.231 202.002 C 187.042 202.19 187.303 203.189 187.303 203.441 C 187.303 203.956 187.196 204.502 186.869 204.665 C 186.851 204.674 186.861 205.151 186.869 205.169 C 187.074 205.575 187.573 206.33 187.014 206.608 C 186.676 206.776 185.893 206.716 185.64 206.464 C 185.456 206.281 185.748 205.492 185.568 205.313 C 185.444 205.189 184.498 205.313 184.339 205.313 C 184.049 205.313 183.471 205.024 183.471 205.313 C 183.471 205.756 184.521 205.892 184.7 206.248 C 185.21 207.263 184.195 207.687 183.76 207.903 C 183.688 207.939 183.821 208.274 183.76 208.335 C 183.568 208.526 183.126 207.67 183.181 207.615 C 183.29 207.506 182.961 207.838 182.892 207.975 C 182.752 208.254 182.572 208.869 182.241 209.199 C 182.058 209.381 181.422 209.79 180.94 209.63 C 180.705 209.553 179.799 208.966 179.565 209.199 C 179.162 209.6 179.902 210.094 179.132 210.35 C 178.604 210.525 177.984 210.278 177.469 210.278 C 177.275 210.278 176.89 210.086 176.89 210.278 C 176.89 211.092 177.93 210.593 178.264 210.925 C 178.275 210.936 178.289 211.26 178.264 211.285 C 178.02 211.529 177.628 211.926 177.324 212.077 C 176.641 212.417 175.722 212.089 175.226 212.581 C 174.7 213.105 175.368 214.236 173.998 214.236 C 173.314 214.236 172.74 213.588 171.828 213.588 C 171.514 213.588 171.201 213.588 170.888 213.588 C 170.743 213.588 170.454 213.444 170.454 213.588 C 170.454 213.773 170.746 213.698 170.815 213.732 C 170.887 213.768 170.755 214.175 170.815 214.236 C 170.868 214.288 171.304 214.83 171.032 215.1 C 170.844 215.287 169.448 215.1 169.152 215.1 C 168.984 215.1 168.646 214.932 168.646 215.1 C 168.646 215.464 169.201 215.556 169.297 215.747 C 169.71 216.569 168.883 217.599 168.574 217.906 C 168.455 218.025 167.53 217.906 167.344 217.906 C 166.46 217.906 164.78 217.599 164.018 217.978 C 163.845 218.065 163.27 217.931 163.15 218.051 C 162.982 218.218 163.319 218.89 163.15 219.058 C 162.869 219.337 162.878 219.418 162.291 219.474 C 162.044 219.474 161.06 220.119 160.627 219.689 C 160.574 219.637 160.225 219.751 160.193 219.689 C 160.069 219.442 159.533 219.001 159.181 218.826 C 159.069 218.77 157.518 218.826 157.518 218.826 C 157.518 218.826 157.783 219.426 157.88 219.474 C 158.136 219.601 157.5 220.371 157.445 220.481 C 157.348 220.676 157.595 221.268 157.445 221.417 C 157.302 221.56 156.308 220.965 155.999 221.273 C 155.889 221.382 156.129 222.144 155.999 222.208 C 155.396 222.508 154.162 221.517 153.829 221.848 C 153.591 222.086 154.191 222.712 154.191 222.712 C 154.191 222.712 153.337 222.396 153.251 222.568 C 153.168 222.733 153.377 223.235 153.251 223.36 C 152.998 223.612 152.412 222.684 152.022 223.072 C 151.781 223.311 152.177 224.111 152.311 224.511 C 152.345 224.611 152.643 224.972 152.528 225.087 C 152.522 225.093 152.094 225.087 152.094 225.087 C 152.094 225.087 152.289 225.901 152.166 226.022 C 151.956 226.232 151.594 226.665 151.298 226.958 C 151.105 227.151 150.346 227.199 150.286 227.318 C 150.219 227.45 150.151 228.2 150.214 228.326 C 150.422 228.74 150.626 229.218 150.793 229.549 C 151.005 229.971 151.522 230.138 151.733 230.556 C 151.944 230.978 151.814 231.51 152.022 231.924 C 152.152 232.183 152.449 232.454 152.673 232.788 C 152.7 232.83 153.112 233.214 153.106 233.219 C 153.017 233.309 152.87 233.16 152.962 233.435 C 153.126 233.924 153.844 234.039 154.047 234.443 C 154.277 234.901 153.876 236.503 154.191 236.818 C 154.499 237.124 154.396 238.172 154.697 238.473 C 155.087 238.86 155.499 238.982 155.854 239.337 C 156.169 239.649 155.744 240.522 155.999 240.776 C 156.376 241.151 157.032 241.398 157.373 241.567 C 157.536 241.648 157.335 242.825 157.518 243.007 C 157.534 243.024 158.575 243.74 158.458 243.798 C 158.372 243.841 158.212 243.712 158.168 243.798 C 158.138 243.86 158.133 244.555 158.168 244.59 C 158.389 244.81 158.75 245.097 158.964 245.31 C 159.169 245.514 158.759 246.329 158.964 246.533 C 159.117 246.685 159.738 247.469 160.153 247.485 C 160.041 247.597 159.26 248.12 159.864 248.42 C 160.038 248.507 160.245 248.316 160.37 248.564 C 160.473 248.768 160.213 249.415 160.37 249.572 C 160.421 249.622 160.948 249.932 160.948 249.932 C 160.948 249.932 160.809 250.302 160.876 250.435 C 160.926 250.533 161.476 251.062 161.455 251.083 C 161.309 251.228 160.876 251.094 160.876 251.299 C 160.876 251.542 161.804 251.842 161.961 251.947 C 162.156 252.076 162.213 252.304 162.323 252.522 C 162.481 252.837 163.494 253.185 163.769 253.458 C 163.888 253.576 163.528 253.578 163.407 253.818 C 163.34 253.95 163.476 254.605 163.552 254.681 C 163.739 254.867 164.124 255.251 164.419 255.545 C 164.631 255.755 165.143 255.258 165.36 255.473 C 165.732 255.844 166.51 255.753 166.879 256.121 C 167.12 256.361 166.637 257.32 166.879 257.56 C 167.074 257.755 167.675 258.316 168.035 258.496 C 168.443 258.698 169.048 258.352 169.337 258.64 C 169.529 258.831 169.489 258.931 169.771 259.071 C 169.907 259.139 169.049 259.324 169.554 259.575 C 170.221 259.907 171.309 259.34 171.579 259.071 C 171.65 259 172.204 259.071 172.302 259.071 C 173.005 259.071 173.878 259.186 174.11 259.647 C 174.134 259.694 174.809 259.887 174.905 259.791 C 175.111 259.586 174.771 258.763 174.905 258.496 C 175.069 258.169 175.495 257.693 175.773 257.416 C 176.017 257.173 176.834 257.439 177.075 257.2 C 177.274 257.002 177.765 256.248 178.087 256.408 C 178.294 256.511 178.217 257.373 178.449 257.488 C 178.921 257.723 179.369 256.789 179.533 256.625 C 179.633 256.525 180.184 256.499 180.353 256.265 C 180.564 256.265 181.213 255.697 181.365 255.545 C 181.614 255.298 182.836 255.881 183.173 255.545 C 183.355 255.365 182.638 254.782 182.74 254.681 C 182.836 254.586 183.222 254.777 183.318 254.681 C 183.456 254.543 183.304 254.048 183.463 253.889 C 183.47 253.883 183.94 253.861 183.969 253.889 C 184.162 254.082 183.776 254.849 183.969 255.041 C 184.041 255.113 184.787 255.041 184.837 255.041 C 184.979 255.041 185.354 255.108 185.488 255.041 C 185.812 254.879 185.623 254.187 185.849 253.962 C 186.184 253.627 187.012 255.107 187.296 254.825 C 187.631 254.491 187.036 253.428 187.584 253.026 C 187.584 252.244 187.745 253.011 188.163 252.594 C 188.272 252.486 188.054 252.055 188.163 251.947 C 188.223 251.886 188.464 252.006 188.524 251.947 C 188.554 251.918 188.583 251.522 188.597 251.515 C 188.805 251.412 188.954 251.376 189.103 251.227 C 189.273 251.058 189.718 251.407 189.754 251.443 C 190.312 251.997 190.785 252.261 191.707 251.803 C 191.865 251.724 192.097 251.847 192.213 251.731 C 192.938 251.009 191.319 250.174 192.14 249.355 C 192.688 248.81 192.607 251.268 193.225 250.651 C 193.375 250.501 193.589 250.614 193.803 250.507 C 193.871 250.473 193.803 249.546 193.803 249.428 C 193.803 248.998 194.093 248.8 194.093 248.42 C 194.379 248.42 196.416 249.409 196.769 248.708 C 196.838 248.57 197.589 248.827 197.709 248.708 C 197.901 248.516 197.733 247.964 197.926 247.773 C 198.036 247.662 198.545 247.33 198.649 247.125 C 198.659 247.103 198.669 246.804 198.649 246.765 C 198.413 246.296 198.245 246.106 198.07 245.758 C 198.058 245.734 197.265 245.48 197.492 245.254 C 197.611 245.135 197.923 245.103 197.998 245.254 C 198.183 245.621 198.949 246.399 199.661 246.045 C 200.18 245.787 200.599 244.895 200.963 244.534 C 201.472 244.027 202.506 245.301 202.988 244.822 C 203.074 244.736 203.703 244.022 203.494 243.814 C 203.466 243.787 202.801 243.044 203.133 242.879 C 203.742 242.575 204.917 243.406 205.302 243.022 C 205.599 242.726 205.843 242.645 206.242 242.447 C 206.505 242.316 206.338 241.632 206.604 241.367 C 206.706 241.265 207.138 241.123 207.254 241.007 C 207.691 240.573 207.876 239.496 208.628 239.496 C 208.7 239.496 208.476 239.464 208.412 239.496 C 208.286 239.559 208.144 239.618 208.05 239.712 C 207.787 239.974 208.431 240.694 208.484 240.72 C 209.708 241.329 209.821 239.946 210.581 239.568 C 210.979 239.37 211.191 239.465 211.521 239.136 C 211.637 239.02 211.521 238.171 211.593 237.881 C 211.701 237.881 211.661 238.093 211.738 238.169 C 211.853 238.283 212.862 238.097 213.112 238.097 C 213.33 238.097 213.613 238.452 213.69 238.529 C 213.98 238.817 214.794 238.366 214.847 238.313 C 214.92 238.241 215.209 238.385 215.282 238.313 C 215.36 238.235 215.282 237.708 215.282 237.593 C 215.282 236.844 215.209 236.16 215.209 235.434 C 215.209 235.263 215.12 234.723 215.282 234.642 C 215.736 234.417 216.438 235.794 216.438 235.794 C 216.438 235.794 216.879 234.995 217.017 234.859 C 217.186 234.691 217.86 235.026 218.029 234.859 C 218.138 234.751 218.427 234.823 218.536 234.715 C 218.758 234.493 218.911 234.125 219.114 233.923 C 219.318 233.72 219.959 234.018 220.126 233.851 C 220.488 233.491 219.765 232.052 220.126 231.692 C 220.311 231.509 221.059 231.988 221.284 231.764 C 221.479 231.569 221.391 230.937 221.645 230.685 C 221.766 230.565 222.03 230.588 222.151 230.468 C 222.304 230.317 222.296 231.471 222.296 231.62 C 222.296 231.707 222.065 231.836 222.151 231.836 C 222.598 231.836 223.119 231.277 223.308 230.901 C 223.414 230.69 223.147 230.053 223.308 229.893 C 223.443 229.759 224.204 229.837 224.32 229.605 C 224.632 228.984 225.558 228.374 226.128 227.806 C 226.143 227.791 227.028 228.35 227.286 228.093 C 227.492 227.888 227.28 227.6 227.43 227.302 C 227.62 226.925 228.207 226.529 228.443 226.294 C 228.6 226.138 228.491 225.783 228.804 225.575 C 229.253 225.277 230.208 225.618 230.539 225.287 C 230.652 225.175 230.41 224.488 230.539 224.423 C 230.902 224.243 231.259 225.291 231.552 224.999 C 231.842 224.711 232.578 224.266 232.854 223.992 C 233.004 223.841 232.703 223.61 233.071 223.488 C 233.457 223.359 234.679 223.758 234.951 223.488 C 235.157 223.284 234.593 221.973 234.878 221.689 C 235.217 221.352 235.41 220.728 235.818 220.321 C 236.288 219.854 236.841 220.876 237.121 220.969 C 237.517 221.101 238.538 220.926 238.711 220.753 C 238.753 220.712 238.745 219.779 238.711 219.745 C 238.621 219.656 238.35 219.453 238.519 219.386 C 238.798 219.386 238.726 218.933 239.097 218.81 C 239.596 218.645 239.936 219.63 240.543 219.026 C 240.854 218.718 240.202 217.782 240.688 217.299 C 241.147 216.843 242.163 217.069 242.858 216.723 C 243.303 216.501 243.835 215.949 244.304 215.715 C 244.514 215.611 245.084 215.602 245.244 215.284 C 245.539 214.696 244.114 214.752 244.81 214.06 C 244.882 213.989 244.738 213.7 244.81 213.629 C 245.027 213.412 245.895 213.845 246.112 213.629 C 246.752 212.991 247.994 212.835 248.788 212.045 C 249.017 211.816 249.932 212.196 250.234 212.045 C 250.467 211.929 249.366 210.893 249.366 210.893 C 249.366 210.893 250.371 211.182 250.596 211.182 C 250.624 211.182 250.761 210.657 250.812 210.606 C 251.113 210.306 252.319 210.905 252.62 210.606 C 252.759 210.468 252.575 210.003 252.692 209.886 C 253.047 209.534 252.911 208.805 253.271 208.447 C 253.616 208.103 254.268 207.756 254.428 207.439 C 254.577 207.143 254.651 206.858 254.934 206.576 C 255.049 206.462 255.151 205.983 255.151 206.144 C 255.151 206.371 254.504 207.56 255.223 207.799 C 255.667 207.947 256.804 206.37 257.176 206 C 257.319 205.857 257.949 205.402 257.682 205.137 C 257.486 204.941 257.058 204.804 256.815 204.561 C 256.394 204.142 257.46 204.555 257.61 204.704 C 257.955 205.049 258.396 204.242 258.478 204.201 C 258.943 203.97 260.266 205.372 260.936 204.704 C 261.106 204.535 260.656 203.635 260.574 203.553 C 260.233 203.213 260.931 202.263 261.009 202.185 C 261.093 202.102 261.43 202.27 261.515 202.185 C 261.778 201.924 262.243 201.61 262.817 201.61 C 263.025 201.61 263.917 201.738 264.046 201.61 C 264.323 201.335 263.769 200.231 264.046 199.955 C 264.244 199.757 264.986 199.611 265.187 200.147 C 265.54 199.796 266.27 199.428 266.633 199.068 C 266.954 198.747 266.178 198.08 266.344 197.916 C 266.43 197.83 267.022 197.718 267.067 197.628 C 267.188 197.387 266.857 197.121 267.139 196.98 C 267.176 196.962 267.554 197.018 267.573 196.98 C 267.686 196.754 267.317 196.3 267.501 196.116 C 267.721 195.897 268.551 196.223 268.802 195.973 C 269.171 195.606 268.441 195.324 268.513 195.253 C 268.902 194.866 269.677 195.03 270.032 194.677 C 270.2 194.51 269.863 193.837 270.032 193.67 C 270.249 193.454 270.61 193.382 270.827 193.166 C 270.882 193.111 270.236 192.688 270.394 192.375 C 270.521 192.121 271.116 192.159 271.262 192.015 C 271.381 191.896 270.57 191.143 270.538 191.079 C 270.406 190.816 270.784 190.776 270.9 190.719 C 270.993 190.673 270.82 190.151 270.9 190.071 C 271.056 189.915 271.033 189.58 271.189 189.423 C 271.214 189.399 271.478 189.352 271.478 189.352 C 271.478 189.352 270.501 189.567 270.394 189.352 C 270.088 188.743 270.829 188.276 270.61 187.841 C 270.443 187.506 269.752 187.418 269.526 187.193 C 269.34 187.008 269.79 187.074 269.815 187.049 C 269.864 187 269.845 186.276 269.815 186.186 C 269.631 185.636 268.296 185.345 268.296 184.89 C 268.506 184.785 268.947 184.924 269.092 184.674 C 268.587 184.423 267.862 183.782 267.862 183.163 C 267.974 183.163 268.224 182.99 268.224 182.731 C 268.051 182.56 267.672 182.207 267.573 182.011 C 267.447 182.011 267.126 180.919 266.923 180.716 C 266.788 180.716 265.923 180.369 265.765 180.212 C 265.309 179.758 264.377 179.91 263.813 179.349 C 263.458 179.203 262.352 178.668 262.166 178.852 C 262.057 178.961 261.274 179.765 260.791 179.285 C 260.256 178.752 259.021 179.345 258.188 179.068 C 257.101 178.708 256.447 178.274 255.44 177.773 C 255.184 177.645 254.164 177.799 253.994 177.63 C 253.859 177.495 253.742 177.108 253.488 176.982 C 252.939 176.708 252.444 176.95 251.969 176.478 C 251.827 176.336 251.792 175.798 251.68 175.686 C 251.536 175.542 251.319 175.471 251.174 175.326 C 250.984 175.137 250.076 175.385 249.872 175.182 C 249.79 175.101 249.738 174.761 249.655 174.678 C 249.268 174.293 248.619 174.451 248.209 174.247 C 247.771 174.029 247.348 173.678 247.124 173.456 C 246.566 172.9 245.37 173.293 244.81 172.736 C 244.459 172.386 243.85 172.068 243.364 171.584 C 243.298 171.519 242.96 171.008 242.858 171.008 C 242.816 171.008 241.859 171.988 241.845 172.016 C 241.611 172.482 240.108 171.294 240.038 171.224 C 239.665 170.854 238.999 171.8 238.808 171.8 C 238.253 171.8 237.827 171.719 237.651 171.368 C 237.638 171.343 236.95 171.346 236.927 171.368 C 236.502 171.792 236.162 172.13 235.699 172.592 C 235.398 172.89 236.111 173.502 236.06 173.527 C 235.775 173.669 235.123 173.309 234.975 173.456 C 234.82 173.61 234.655 173.845 234.469 174.031 C 233.837 174.175 233.542 173.872 233.023 173.743 C 232.783 173.683 232.621 173.167 232.372 173.167 C 232.228 173.167 232.372 173.455 232.372 173.599 C 232.372 173.939 232.394 174.225 232.228 174.391 C 231.949 174.667 230.611 174.128 230.42 174.319 C 230.129 174.608 231.353 175.045 230.998 175.398 C 230.798 175.597 230.134 175.395 229.913 175.614 C 229.598 175.928 229.803 176.659 229.552 176.91 C 229.463 176.998 229.087 176.853 228.973 176.91 C 228.891 176.95 229.042 177.344 228.973 177.413 C 228.712 177.674 228.485 178.116 228.25 178.349 C 227.823 178.774 227.428 178.192 227.165 178.061 C 227.123 178.04 226.914 177.664 226.731 177.845 C 226.563 178.013 226.466 178.253 226.297 178.421 C 226.158 178.559 226.384 179.127 226.225 179.285 C 226.088 179.421 225.538 179.195 225.357 179.285 C 225.298 179.314 225.408 179.593 225.357 179.645 C 224.974 180.026 224.199 180.078 223.911 180.652 C 223.887 180.7 223.59 180.611 223.55 180.652 C 223.329 180.871 223.116 180.868 223.116 181.371 Z" style="stroke: rgb(0, 0, 0); fill: rgb(240, 232, 232);"/>
  <path d="M 315.737 181.329 C 316.543 180.794 317.329 180.422 318.026 179.728 C 318.336 179.42 318.244 178.864 318.459 178.434 C 318.474 178.407 318.769 178.458 318.769 178.434 C 318.769 178.043 319.351 177.375 319.697 177.203 C 319.825 177.139 319.726 176.867 319.821 176.772 C 320.224 176.37 320.485 175.942 320.749 175.417 C 320.86 175.196 321.5 174.859 321.739 174.74 C 321.807 174.706 321.823 174.349 321.863 174.309 C 321.952 174.219 322.309 174.097 322.358 174.001 C 322.397 173.921 322.663 173.326 322.667 173.324 C 323.069 173.124 323.345 172.617 323.657 172.462 C 324.055 172.264 324.398 172.37 324.832 172.154 C 325.026 172.057 325.309 171.557 325.575 171.292 C 325.707 171.16 326.588 171.046 326.75 171.046 C 326.851 171.046 327.37 171.106 327.431 171.046 C 327.609 170.868 328.378 170.609 328.73 170.492 C 328.868 170.445 329.098 170.56 329.163 170.43 C 329.365 170.029 329.74 169.746 330.277 169.568 C 330.787 169.399 331.652 169.568 332.195 169.568 C 332.279 169.568 332.752 169.507 332.814 169.568 C 332.884 169.638 332.929 169.929 332.999 169.999 C 333.44 170.438 334.291 169.632 334.484 169.568 C 334.937 169.418 334.982 169.626 335.288 169.322 C 335.527 169.084 336.521 169.502 336.65 169.629 C 336.906 169.886 337.433 170.162 337.763 170.492 C 337.887 170.614 337.763 170.984 337.887 171.107 C 338.342 171.56 339.19 171.817 339.744 172.092 C 340.485 172.461 341.723 172.842 341.723 174.063 C 341.723 174.082 341.395 174.042 341.352 174.063 C 341.178 174.15 341.194 174.644 341.29 174.74 C 341.562 175.011 342.065 174.896 342.28 175.109 C 342.755 175.582 342.734 175.786 342.961 176.464 C 343.015 176.626 343.318 176.636 343.394 176.71 C 343.618 176.934 344.259 177.388 344.384 177.634 C 344.48 177.826 344.384 178.336 344.384 178.558 C 344.384 178.743 344.502 179.61 344.384 179.728 C 343.946 180.163 343.689 181.163 343.951 181.944 C 344.049 182.238 344.397 182.389 344.569 182.56 C 344.658 182.648 344.465 183.186 344.569 183.237 C 345.226 183.564 345.003 184.716 345.003 185.516 C 345.003 185.722 345.134 186.677 345.003 186.809 C 344.585 187.224 344.055 187.482 343.827 188.163 C 343.647 188.699 344.053 189.601 343.703 189.949 C 343.66 189.992 343.753 190.231 343.703 190.257 C 343.348 190.433 343.093 190.854 342.899 191.242 C 342.754 191.53 342.118 191.791 341.909 192.104 C 341.645 192.498 341.753 193.121 341.414 193.458 C 340.972 193.898 340.084 194.474 339.619 194.936 C 339.535 195.02 339.717 195.565 339.619 195.613 C 339.309 195.768 339.386 196.468 339.124 196.598 C 338.797 196.762 338.023 197.018 337.702 197.337 C 337.1 197.936 336.746 198.657 336.217 199.185 C 335.866 199.534 334.463 198.836 334.113 199.185 C 333.475 199.82 332.796 200.495 332.195 201.093 C 331.658 201.628 330.931 200.416 330.648 200.416 C 330.295 200.416 329.83 200.861 329.534 201.155 C 329.483 201.207 329.586 201.412 329.534 201.463 C 329.293 201.704 328.778 201.709 328.297 201.709 C 328.136 201.709 327.47 201.809 327.369 201.709 C 327.333 201.674 326.705 201.497 326.688 201.463 C 326.496 201.081 326.565 200.246 326.565 199.801 C 326.565 199.694 326.626 199.246 326.565 199.185 C 326.318 198.939 325.342 199.346 325.018 199.185 C 324.556 198.955 324.252 198.233 323.78 198.077 C 323.077 197.843 322.479 197.518 321.986 196.784 C 321.877 196.62 321.548 196.522 321.491 196.352 C 321.43 196.171 321.434 195.618 321.306 195.49 C 321.242 195.427 321.019 195.532 320.934 195.49 C 320.523 195.285 319.325 195.243 319.078 194.874 C 318.809 194.473 319.297 193.587 319.078 193.15 C 318.906 192.809 318.586 192.66 318.397 192.473 C 318.154 192.231 318.44 191.492 318.336 191.18 C 318.254 190.935 317.839 190.93 317.779 190.811 C 317.608 190.471 317.84 190.256 317.531 189.949 C 317.274 189.692 317.789 188.666 317.531 188.409 C 317.265 188.145 316.895 187.97 316.542 187.794 C 316.498 187.772 316.569 187.541 316.542 187.486 C 316.307 187.019 316.17 186.821 316.17 186.193 C 316.17 186.036 316.074 185.365 316.17 185.269 C 316.315 185.125 316.733 185.017 316.912 184.838 C 317.236 184.516 316.211 183.975 316.109 183.668 C 316.104 183.657 316.126 183.369 316.109 183.36 C 315.817 183.215 315.362 181.267 315.861 181.267" style="stroke: rgb(0, 0, 0); fill: rgb(255, 243, 243);"/>
  <path d="M 152.106 177.884 C 152.106 177.302 151.85 176.002 152.106 175.493 C 152.18 175.346 152.645 175.31 152.729 175.226 C 152.893 175.064 152.723 174.654 152.996 174.518 C 153.219 174.407 153.542 174.417 153.708 174.252 C 154.094 173.868 154.074 173.081 154.332 172.569 C 154.388 172.456 154.64 172.46 154.777 172.392 C 154.778 172.391 154.854 171.794 154.866 171.771 C 155.033 171.438 155.547 171.093 155.845 170.797 C 156.272 170.372 156.305 169.616 156.557 169.114 C 156.948 168.335 157.701 168.064 158.07 167.697 C 158.257 167.511 158.16 166.898 158.337 166.722 C 158.99 166.073 159.342 164.836 160.118 164.064 C 160.215 163.967 160.118 163.161 160.118 163.001 C 160.118 162.296 159.914 160.811 160.296 160.432 C 160.384 160.344 160.207 159.989 160.296 159.901 C 161.908 158.295 163.567 156.412 165.814 155.294 C 166.175 155.114 166.411 154.258 166.616 154.053 C 167.155 153.517 168.027 153.003 168.574 152.459 C 168.649 152.385 168.5 152.09 168.574 152.016 C 168.649 151.942 168.945 152.09 169.02 152.016 C 169.706 151.333 170.923 150.176 171.334 149.358 C 171.479 149.07 171.992 148.703 172.135 148.561 C 172.198 148.499 172.544 148.633 172.58 148.561 C 172.851 148.022 173.088 147.79 173.56 147.32 C 173.634 147.247 173.485 146.951 173.56 146.878 C 173.737 146.7 174.183 146.789 174.361 146.612 C 174.428 146.545 174.396 146.018 174.45 145.992 C 175.361 145.538 176.086 144.628 176.675 144.043 C 176.961 143.758 177.593 143.926 177.921 143.6 C 178.485 143.039 178.871 142.3 179.435 141.739 C 179.965 141.212 181.304 140.483 181.527 139.571 C 181.527 139.085 182.908 138.111 183.275 137.928 C 183.351 137.89 183.695 137.993 183.76 137.928 C 184.474 137.219 185.169 137.252 186.674 137.252 C 186.973 137.252 188.33 137.439 188.519 137.252 C 189.468 136.307 192.159 136.744 193.373 137.348 C 193.929 137.625 196.001 137.542 196.61 137.51 C 197.22 137.51 197.306 137.301 197.582 137.026 C 197.905 136.704 199.2 137.348 199.524 137.026 C 200.437 136.118 202.042 136.015 203.311 135.384 C 204.267 134.908 205.201 135.532 205.932 134.804 C 206.044 134.692 206.81 134.804 207.001 134.804 C 208.068 134.804 209.137 134.804 210.205 134.804 C 210.308 134.804 211.338 134.74 211.371 134.804 C 211.553 135.168 212.203 134.859 212.536 135.19 C 213.358 136.008 214.368 135.813 215.448 136.35 C 215.881 136.565 216.249 136.873 216.711 137.026 C 217.027 137.131 217.666 136.913 217.876 137.123 C 218.271 137.516 219.523 138.184 219.915 138.379 C 220.163 138.503 220.894 138.193 221.08 138.379 C 221.307 138.605 221.534 138.83 221.76 139.055 C 222.246 139.539 223.338 139.466 223.8 139.926 C 224.047 140.171 225.028 139.795 225.256 140.022 C 226.013 140.775 227.745 140.76 228.558 141.569 C 229.56 141.569 230.813 141.977 231.374 142.535 C 231.778 142.937 233.396 142.132 233.802 142.535 C 234.25 142.981 235.296 143.153 235.744 143.598 C 235.92 143.773 237.213 143.598 237.492 143.598 C 238.732 143.598 240.314 143.603 241.084 144.371 C 241.222 144.508 242.124 144.371 242.346 144.371 C 242.685 144.371 244.564 144.741 244.774 144.951 C 245.292 145.466 247.078 145.381 247.493 146.207 C 247.617 146.455 249.029 145.996 249.241 146.207 C 249.375 146.34 250.59 146.572 250.698 146.787 C 251.129 147.646 252.21 147.463 253.443 147.424 C 253.619 147.599 253.93 147.44 254.05 147.558 C 254.682 148.188 255.691 148.186 256.34 148.832 C 256.576 149.066 257.518 148.597 257.755 148.832 C 257.939 149.015 258.436 149.242 258.63 149.435 C 258.722 149.526 259.174 149.392 259.304 149.435 C 259.776 149.592 260.936 150.137 261.122 150.508 C 261.169 150.599 261.751 150.452 261.863 150.508 C 262.289 150.719 262.787 151.102 263.076 151.245 C 263.379 151.396 264.264 151.154 264.491 151.379 C 264.737 151.625 265.187 151.67 265.433 151.915 C 265.568 152.05 266.04 151.849 266.174 151.983 C 266.318 152.126 266.65 152.364 266.915 152.452 C 267.145 152.528 267.509 152.345 267.724 152.452 C 268.288 152.732 268.903 153.139 269.408 153.39 C 269.606 153.489 270.504 153.543 270.62 153.659 C 270.73 153.768 270.973 154.01 271.092 154.128 C 271.238 154.273 271.822 153.983 271.968 154.128 C 272.555 154.712 273.952 154.679 274.865 155.133 C 274.904 155.153 274.975 155.42 274.999 155.468 C 275.094 155.658 276.008 155.87 276.212 156.072 C 276.36 156.22 277.145 156.033 277.356 156.139 C 278.378 156.647 279.163 156.971 280.052 157.412 C 280.303 157.538 280.725 157.323 280.994 157.412 C 281.723 157.654 282.32 158.3 283.083 158.552 C 284.942 159.169 285.946 159.725 287.663 160.295 C 287.789 160.337 287.801 160.565 287.932 160.63 C 288.104 160.716 288.766 160.588 288.876 160.698 C 289.39 161.21 290.735 161.971 291.959 161.906 C 291.959 162.048 293.195 162.552 293.518 162.712 C 293.611 162.759 293.942 162.638 294.016 162.712 C 294.841 163.533 296.399 163.47 297.135 164.202 C 297.25 164.317 297.733 164.127 297.883 164.202 C 298.24 164.379 298.512 164.701 298.881 164.946 C 299.037 165.05 299.438 165.066 299.567 165.195 C 299.838 165.464 300.709 165.524 301.001 165.816 C 301.537 166.349 302.164 166.736 302.81 167.056 C 302.997 167.149 303.65 167.148 303.808 167.305 C 304.258 167.753 304.944 167.902 305.741 168.298 C 306.255 168.553 306.808 169.015 307.362 169.291 C 307.593 169.406 307.878 169.276 308.111 169.353 C 308.275 169.408 308.738 169.915 308.859 170.036 C 309.354 170.529 310.31 170.487 310.793 170.966 C 311.004 171.177 311.228 171.525 311.479 171.649 C 312.581 172.198 313.404 172.825 314.534 173.387 C 314.783 173.511 315.483 173.786 315.594 174.008 C 315.879 174.575 316.256 174.56 316.592 175.063 C 316.691 175.211 317.116 175.754 317.278 175.808 C 317.494 175.879 317.787 175.942 317.902 176.056 C 318.167 176.319 318.516 176.855 319.024 177.235 C 318.65 177.297 318.579 177.306 318.401 177.483 C 318.298 177.586 318.775 177.669 318.65 177.918 C 318.59 178.038 318.361 177.896 318.276 177.98 C 318.21 178.045 318.318 178.332 318.276 178.415 C 318.085 178.795 317.864 179.42 317.59 179.966 C 317.536 180.075 316.82 180.112 316.717 180.214 C 316.484 180.447 315.812 181.083 315.345 181.083 C 315.273 181.083 314.74 181.119 314.721 181.083 C 314.636 180.913 313.653 180.649 313.412 180.649 C 312.788 180.649 312.165 180.649 311.541 180.649 C 311.442 180.649 310.984 180.716 310.917 180.649 C 310.447 180.181 309.938 180.593 309.171 180.338 C 308.738 180.195 308.612 180.09 308.048 180.09 C 307.948 180.09 307.545 180.147 307.487 180.09 C 307.412 180.015 307.334 179.828 307.238 179.779 C 306.991 179.657 306.656 179.76 306.489 179.593 C 306.421 179.526 305.965 179.593 305.866 179.593 C 305.739 179.593 304.408 179.447 304.307 179.345 C 304.069 179.108 303.607 178.904 303.246 178.725 C 303.072 178.637 302.423 178.774 302.311 178.662 C 302.124 178.476 301.812 178.415 301.625 178.228 C 301.531 178.135 301.157 178.321 301.064 178.228 C 300.704 177.87 299.759 177.674 299.317 177.235 C 299.128 177.047 298.381 177.358 298.133 177.235 C 297.828 177.084 297.642 176.845 297.322 176.739 C 296.861 176.586 296.131 176.953 295.7 176.739 C 294.41 176.097 293.056 175.515 291.896 174.939 C 291.584 174.783 290.977 174.707 290.774 174.505 C 290.68 174.412 290.306 174.598 290.212 174.505 C 289.858 174.152 288.625 173.573 287.905 173.573 C 287.868 173.587 287.666 173.587 287.651 173.587 C 287.64 173.587 287.473 173.701 287.413 173.716 C 287.379 173.725 287.174 173.716 287.153 173.737 C 287.041 173.848 286.9 173.932 286.655 173.932 C 286.581 173.932 286.246 173.886 286.2 173.932 C 286.13 174.001 285.979 173.957 285.918 174.018 C 285.733 174.202 285.238 174.367 284.9 174.535 C 284.749 174.61 284.41 174.519 284.337 174.664 C 284.337 174.665 284.209 174.685 284.207 174.686 C 283.993 174.757 283.822 174.772 283.558 174.772 C 283.494 174.772 283.304 174.759 283.276 174.815 C 283.204 174.957 282.781 175.084 282.56 175.138 C 282.32 175.199 282.123 175.277 281.889 175.354 C 281.774 175.392 281.586 175.3 281.478 175.354 C 281.186 175.499 281.02 175.571 280.698 175.678 C 280.407 175.774 280.061 175.639 279.81 175.807 C 279.74 175.853 279.574 175.804 279.507 175.872 C 279.422 175.955 279.253 176.01 279.117 176.044 C 278.713 176.145 278.333 176.368 277.947 176.497 C 277.773 176.554 277.555 176.54 277.362 176.54 C 277.319 176.54 277.15 176.514 277.124 176.54 C 276.988 176.675 276.925 176.635 276.69 176.713 C 276.65 176.726 276.735 176.73 276.712 176.798 C 276.692 176.857 276.463 176.917 276.409 176.971 C 276.283 177.097 275.946 176.957 275.846 177.058 C 275.568 177.333 274.77 177.42 274.416 177.596 C 274.27 177.669 273.834 177.486 273.723 177.596 C 273.594 177.725 273.399 177.703 273.225 177.79 C 272.927 177.938 272.598 178.048 272.271 178.157 C 271.95 178.263 271.445 178.007 271.145 178.157 C 271.015 178.222 270.819 178.265 270.69 178.329 C 270.635 178.357 270.478 178.3 270.452 178.351 C 270.384 178.486 270.083 178.513 269.932 178.588 C 269.553 178.777 268.85 178.825 268.395 178.825 C 266.96 178.76 265.657 179.105 264.187 179.105 C 263.834 179.105 263.48 179.105 263.126 179.105 C 263.067 179.105 262.796 179.143 262.758 179.105 C 262.648 178.996 262.314 178.807 262.065 178.889 C 261.864 178.956 261.715 179.107 261.502 179.213 C 261.364 179.281 261.009 179.213 260.852 179.213 C 260.236 179.213 259.482 179.307 258.989 179.062 C 258.74 178.938 258.306 179.185 258.058 179.062 C 257.895 178.982 257.835 178.909 257.668 178.825 C 257.6 178.791 257.394 178.876 257.342 178.825 C 257.215 178.698 256.907 178.671 256.78 178.544 C 256.72 178.486 256.493 178.54 256.433 178.48 C 256.293 178.34 256.04 178.205 255.805 178.049 C 255.771 178.026 255.708 178.061 255.675 178.027 C 255.634 177.987 255.534 177.873 255.479 177.855 C 255.278 177.788 255.105 177.769 254.83 177.769 C 254.787 177.769 254.555 177.797 254.527 177.769 C 254.48 177.723 254.09 177.654 254.05 177.575 C 253.96 177.395 253.712 177.217 253.595 177.1 C 253.566 177.072 253.473 177.107 253.443 177.079 C 253.365 177.001 253.268 176.934 253.119 176.885 C 253.067 176.867 252.916 176.921 252.881 176.885 C 252.805 176.81 252.585 176.807 252.512 176.734 C 252.451 176.674 252.411 176.598 252.295 176.54 C 252.226 176.505 252.105 176.574 252.036 176.54 C 251.919 176.482 251.871 176.246 251.797 176.173 C 251.695 176.072 251.571 175.969 251.472 175.872 C 251.4 175.8 251.458 175.598 251.386 175.527 C 251.307 175.449 251.136 175.365 251.061 175.29 C 250.996 175.226 250.832 175.287 250.779 175.182 C 250.526 175.201 250.369 175.135 250.199 175.05 C 250.085 174.994 249.905 175.065 249.788 175.007 C 249.74 174.984 249.697 174.783 249.679 174.748 C 249.591 174.573 249.139 174.436 248.986 174.36 C 248.818 174.277 248.596 174.349 248.445 174.274 C 248.249 174.177 248.031 174.022 247.881 173.972 C 247.721 173.919 247.468 173.95 247.361 173.843 C 247.193 173.675 246.842 173.37 246.668 173.196 C 246.63 173.157 246.434 173.174 246.365 173.174 C 246.108 173.174 245.934 173.175 245.759 173.089 C 245.664 173.042 245.469 173.145 245.39 173.067 C 245.216 172.893 245.024 172.68 244.849 172.592 C 244.675 172.507 244.6 172.539 244.481 172.42 C 244.437 172.377 244.279 172.414 244.22 172.355 C 244.076 172.212 243.912 171.962 243.809 171.859 C 243.737 171.788 243.534 171.845 243.462 171.773 C 243.407 171.719 243.527 171.601 243.527 171.601 C 243.527 171.601 243.291 171.365 243.268 171.342 C 243.193 171.268 243 171.275 242.878 171.235 C 242.612 171.146 242.532 171.32 242.358 171.407 C 242.05 171.56 241.889 171.744 241.664 171.967 C 241.642 171.989 241.145 171.989 241.123 171.967 C 241.048 171.893 240.986 171.825 240.928 171.709 C 240.888 171.629 240.68 171.635 240.625 171.58 C 240.453 171.408 240.212 171.341 240.04 171.256 C 239.926 171.199 239.496 171.15 239.369 171.213 C 239.095 171.349 238.957 171.536 238.762 171.73 C 238.748 171.744 238.468 171.739 238.459 171.73 C 238.347 171.619 238.022 171.684 237.917 171.58 C 237.795 171.458 237.557 171.364 237.397 171.364 C 237.33 171.364 237.007 171.321 236.964 171.364 C 236.664 171.662 236.39 171.783 236.162 172.01 C 236.086 172.086 236.02 172.26 235.967 172.312 C 235.888 172.392 235.662 172.511 235.621 172.592 C 235.561 172.712 235.553 172.976 235.643 173.11 C 235.671 173.152 235.754 173.235 235.708 173.304 C 235.583 173.49 235.31 173.367 235.144 173.476 C 234.948 173.607 234.739 173.772 234.538 173.972 C 234.513 173.997 234.411 173.947 234.386 173.972 C 234.313 174.045 233.93 173.994 233.802 173.994 C 233.525 173.994 233.422 173.904 233.276 173.832 C 233.086 173.737 232.956 173.776 232.829 173.65 C 232.814 173.635 232.518 173.595 232.483 173.629 C 232.322 173.789 232.307 174.182 232.036 174.317 C 231.837 174.416 231.327 174.317 231.1 174.317 C 231.002 174.317 230.808 174.293 230.775 174.358 C 230.687 174.533 230.735 174.764 230.836 174.965 C 230.867 175.026 230.961 175.225 230.897 175.289 C 230.677 175.507 230.201 175.395 230.002 175.593 C 229.935 175.659 229.71 175.587 229.657 175.693 C 229.515 175.976 229.741 176.432 229.636 176.746 C 229.616 176.807 229.469 176.835 229.453 176.867 C 229.388 176.998 229.266 177.013 229.169 177.11 C 229.149 177.129 229.103 177.285 229.087 177.292 C 228.615 177.527 228.5 178.07 228.07 178.284 C 227.874 178.381 227.588 178.439 227.318 178.304 C 227.113 178.202 226.919 177.754 226.546 177.94 C 226.5 177.962 226.531 178.091 226.505 178.142 C 226.4 178.351 226.432 178.552 226.322 178.769 C 226.264 178.884 226.054 179.085 225.956 179.134 C 225.875 179.174 225.764 179.162 225.712 179.214 C 225.695 179.231 225.728 179.299 225.712 179.316 C 225.642 179.385 225.52 179.544 225.407 179.619 C 225.337 179.665 225.146 179.635 225.101 179.68 C 225.001 179.78 224.778 179.781 224.614 179.862 C 224.452 179.943 224.328 180.237 224.227 180.287 C 223.853 180.473 223.589 180.699 223.333 180.955 C 223.288 180.999 223.164 180.981 223.129 181.016 C 222.978 181.166 223.053 181.537 222.906 181.684 C 222.859 181.73 222.799 181.949 222.722 181.987 C 222.51 182.093 222.079 182.478 221.991 182.655 C 221.935 182.766 221.889 182.838 221.828 182.958 C 221.803 183.007 221.865 183.144 221.828 183.181 C 221.441 183.565 220.964 183.697 220.628 184.031 C 220.583 184.206 220.521 184.178 220.441 184.258 C 220.42 184.279 220.461 184.359 220.441 184.379 C 220.353 184.467 220.262 184.529 220.176 184.643 C 220.136 184.697 220.101 184.822 220.054 184.845 C 219.955 184.894 219.699 184.845 219.586 184.845 C 219.195 184.845 218.709 184.848 218.489 185.068 C 218.12 185.434 218.082 186.242 217.736 186.585 C 217.619 186.702 217.501 186.718 217.411 186.808 C 217.38 186.838 217.259 186.778 217.228 186.808 C 217.081 186.954 216.858 187.086 216.659 187.152 C 216.577 187.179 216.079 187.091 216.048 187.152 C 216.03 187.19 216.041 187.215 215.988 187.232 C 215.947 187.246 215.764 187.274 215.744 187.313 C 215.586 187.627 215.332 187.911 215.154 188.264 C 215.077 188.418 214.822 188.515 214.727 188.609 C 214.711 188.624 214.72 188.724 214.707 188.751 C 214.658 188.848 214.409 189.006 214.32 189.094 C 214.136 189.277 213.921 189.593 213.69 189.823 C 213.591 189.921 213.402 189.927 213.303 190.025 C 213.215 190.113 212.746 190.046 212.612 190.046 C 212.429 190.046 212.236 190.036 212.144 189.944 C 212.1 189.9 211.965 189.948 211.921 189.904 C 211.864 189.848 211.907 189.826 211.819 189.783 C 211.741 189.744 211.886 189.303 211.819 189.236 C 211.736 189.153 211.607 189.147 211.514 189.054 C 211.389 188.93 211.274 188.668 210.965 188.771 C 210.852 188.808 210.863 189.005 210.863 189.115 C 210.863 189.37 211.047 189.507 211.047 189.742 C 211.047 189.831 211.074 189.981 211.006 190.025 C 210.922 190.081 210.739 190.046 210.639 190.046 C 210.252 190.046 209.339 189.893 209.339 190.289 C 209.144 190.324 208.977 190.441 208.846 190.507 C 208.769 190.545 208.538 190.448 208.48 190.507 C 208.407 190.58 208.402 190.659 208.358 190.79 C 208.332 190.866 208.221 190.922 208.276 191.032 C 208.357 191.193 208.747 191.249 208.643 191.458 C 208.618 191.506 208.527 191.526 208.5 191.579 C 208.477 191.625 208.536 191.766 208.5 191.802 C 208.449 191.852 208.231 191.892 208.215 191.923 C 208.11 192.133 207.869 192.261 207.606 192.348 C 207.312 192.446 207.064 192.305 206.873 192.591 C 206.776 192.736 206.693 192.849 206.629 192.975 C 206.579 193.077 206.636 193.151 206.548 193.238 C 206.427 193.359 206.561 193.596 206.345 193.704 C 205.832 193.959 205.361 193.941 204.901 194.17 C 204.611 194.314 204.558 194.632 204.393 194.796 C 204.356 194.834 204.254 194.815 204.209 194.837 C 203.973 194.955 203.614 194.918 203.294 194.918 C 203.21 194.918 202.942 194.884 202.888 194.938 C 202.764 195.062 202.564 195.099 202.4 195.181 C 202.299 195.231 202.28 195.402 202.155 195.464 C 201.919 195.582 201.448 195.505 201.159 195.505 C 201.089 195.505 200.867 195.481 200.834 195.545 C 200.763 195.688 200.733 195.804 200.733 196.031 C 200.733 196.07 200.756 196.27 200.733 196.294 C 200.685 196.341 200.711 196.446 200.651 196.476 C 200.519 196.542 200.343 196.703 200.224 196.821 C 200.201 196.844 200.224 197.003 200.224 197.043 C 200.224 197.216 200.264 197.509 200.163 197.61 C 199.972 197.8 199.689 197.98 199.431 198.236 C 199.318 198.349 199.343 198.594 199.167 198.682 C 198.891 198.819 198.424 198.584 198.13 198.682 C 198.082 198.698 197.943 198.911 197.926 198.945 C 197.918 198.963 197.742 198.987 197.723 199.006 C 197.647 199.081 197.625 199.257 197.479 199.329 C 197.278 199.43 197.178 199.528 197.031 199.674 C 196.822 199.882 196.585 199.914 196.483 200.119 C 196.425 200.128 196.349 200.459 196.302 200.553 C 196.247 200.66 195.814 200.562 195.712 200.613 C 195.519 200.71 195.35 200.934 195.203 201.079 C 195.086 201.195 194.862 200.788 194.837 200.775 C 194.727 200.721 194.297 200.61 194.248 200.513 C 194.243 200.503 193.856 200.498 193.841 200.513 C 193.753 200.6 193.822 200.733 193.76 200.856 C 193.756 200.865 193.554 200.948 193.536 200.958 C 193.065 201.192 192.694 200.505 192.479 200.29 C 192.425 200.237 192.174 199.986 192.052 200.107 C 191.976 200.183 191.943 200.337 191.868 200.411 C 191.818 200.462 191.92 200.664 191.868 200.715 C 191.794 200.789 191.868 200.919 191.828 201.039 C 191.818 201.068 191.712 201.194 191.706 201.2 C 191.675 201.232 191.706 201.435 191.706 201.484 C 191.706 201.724 191.63 202.237 191.787 202.394 C 191.859 202.466 191.823 202.713 191.889 202.779 C 192.01 202.9 191.97 203.297 191.97 203.487 C 191.97 203.512 191.985 203.723 191.97 203.73 C 191.752 203.839 191.088 203.803 190.913 203.628 C 190.891 203.607 190.849 203.486 190.791 203.467 C 190.745 203.451 190.493 203.454 190.466 203.426 C 190.292 203.253 190.073 203.036 189.876 202.839 C 189.775 202.739 189.326 202.94 189.164 202.86 C 189.065 202.81 189.026 202.694 188.941 202.637 C 188.825 202.56 188.688 202.522 188.554 202.455 C 188.46 202.408 188.401 202.359 188.31 202.313 C 188.233 202.275 188.108 202.334 188.026 202.293 C 187.926 202.244 187.917 202.148 187.843 202.111 C 187.746 202.063 187.691 202.112 187.639 202.009 C 187.636 202.005 187.363 202.001 187.355 202.009 C 187.311 202.054 187.317 202.146 187.293 202.192 C 187.277 202.225 187.179 202.256 187.152 202.313 C 187.122 202.371 187.152 202.532 187.152 202.596 C 187.152 202.677 187.044 202.929 187.111 203.062 C 187.144 203.128 187.357 203.485 187.293 203.548 C 187.154 203.687 187.086 203.936 186.948 204.074 C 186.914 204.107 186.953 204.346 186.968 204.377 C 187.064 204.568 187.03 204.848 187.03 205.086 C 187.03 205.54 187.504 206.317 187.009 206.563 C 186.819 206.658 186.331 206.563 186.115 206.563 C 186.07 206.563 185.878 206.592 185.85 206.563 C 185.774 206.487 185.621 206.31 185.565 206.198 C 185.462 205.993 185.63 205.66 185.525 205.45 C 185.507 205.415 185.331 205.404 185.301 205.389 C 185.058 205.268 184.808 205.247 184.447 205.247 C 184.391 205.247 184.137 205.213 184.101 205.247 C 184.084 205.264 184.083 205.634 184.101 205.653 C 184.322 205.871 184.772 206.22 184.772 206.604 C 184.772 206.687 184.797 206.862 184.752 206.907 C 184.712 206.946 184.778 207.098 184.752 207.149 C 184.74 207.173 184.61 207.169 184.589 207.19 C 184.445 207.334 184.408 207.321 184.223 207.413 C 184.08 207.484 183.951 207.704 183.837 207.817 C 183.792 207.861 183.713 207.84 183.674 207.878 C 183.604 207.948 183.228 207.868 183.125 207.919 C 183.052 207.955 183.098 208.196 183.003 208.243 C 182.862 208.313 182.719 208.566 182.596 208.688 C 182.494 208.789 182.318 208.79 182.21 208.951 C 182.149 209.043 182.153 209.15 182.088 209.214 C 181.984 209.317 181.539 209.394 181.539 209.538 C 181.299 209.538 181.049 209.538 180.798 209.538 C 180.72 209.538 180.523 209.573 180.452 209.538 C 180.426 209.525 180.418 209.409 180.351 209.376 C 180.276 209.338 180.146 209.402 180.066 209.376 C 179.906 209.323 179.622 209.299 179.476 209.396 C 179.401 209.446 179.478 209.536 179.436 209.578 C 179.354 209.66 179.471 209.891 179.415 210.003 C 179.403 210.026 179.331 210.086 179.314 210.104 C 179.134 210.283 178.772 210.283 178.561 210.387 C 178.498 210.419 178.386 210.365 178.358 210.448 C 178.292 210.646 178.236 210.829 178.236 211.116 C 178.236 211.162 178.263 211.372 178.236 211.399 C 178.137 211.497 178.07 211.533 177.971 211.582 C 177.931 211.602 177.929 211.717 177.849 211.744 C 177.717 211.788 177.727 211.825 177.606 211.885 C 177.494 211.941 177.186 211.986 177.056 211.986 C 177.02 211.986 176.816 211.962 176.792 211.986 C 176.749 212.029 176.616 211.999 176.569 212.047 C 176.492 212.123 176.35 212.243 176.283 212.31 C 176.269 212.325 176.121 212.324 176.101 212.331 C 175.85 212.414 175.52 212.427 175.308 212.533 C 175.106 212.633 175.318 213.018 175.226 213.201 C 175.092 213.468 174.94 213.718 174.718 213.828 C 174.692 213.84 174.672 213.931 174.637 213.95 C 174.453 214.041 174.257 213.94 174.047 214.01 C 173.582 214.164 172.697 214.043 172.441 213.787 C 172.406 213.754 172.292 213.801 172.257 213.767 C 172.135 213.646 171.9 213.654 171.79 213.544 C 171.72 213.475 171.21 213.544 171.098 213.544 C 171.073 213.544 170.903 213.529 170.895 213.544 C 170.862 213.61 170.895 213.774 170.895 213.848 C 170.895 214.169 171.059 214.981 170.773 215.123 C 170.578 215.22 170.319 215.026 170.183 214.982 C 170.069 214.943 169.999 214.979 169.919 214.901 C 169.872 214.854 169.566 215.042 169.451 215.042 C 169.375 215.042 168.9 215.006 168.882 215.042 C 168.813 215.18 169.095 215.275 169.166 215.346 C 169.286 215.463 169.41 216.014 169.329 216.256 C 169.237 216.532 169.116 216.813 168.903 217.025 C 168.838 217.09 168.897 217.294 168.841 217.349 C 168.744 217.447 168.754 217.603 168.679 217.754 C 168.525 218.059 167.862 217.875 167.56 217.875 C 167.15 217.875 166.704 217.835 166.32 217.835 C 166.24 217.835 165.92 217.882 165.872 217.835 C 165.819 217.782 165.67 217.815 165.608 217.754 C 165.364 217.511 164.736 217.641 164.51 217.754 C 164.384 217.816 163.616 217.79 163.616 217.936 C 163.549 218.004 163.338 218.014 163.265 218.051 C 163.194 218.086 163.179 218.183 163.143 218.253 C 163.062 218.415 163.267 218.899 163.143 219.022 C 163.105 219.06 163.035 219.028 163.001 219.063 C 162.803 219.26 162.555 219.386 162.309 219.508 C 162 219.662 161.459 219.354 161.15 219.508 C 161.093 219.536 160.946 219.528 160.906 219.568 C 160.81 219.664 160.592 219.923 160.317 219.831 C 160.195 219.791 159.993 219.51 159.951 219.427 C 159.914 219.354 159.656 219.275 159.605 219.224 C 159.339 218.96 159.056 218.941 158.507 218.941 C 158.431 218.941 157.86 218.876 157.795 218.941 C 157.703 219.032 157.887 219.396 157.795 219.487 C 157.728 219.554 157.714 219.726 157.714 219.831 C 157.714 219.856 157.728 220.007 157.714 220.014 C 157.594 220.073 157.608 220.285 157.552 220.398 C 157.473 220.553 157.612 220.721 157.49 220.843 C 157.425 220.908 157.455 221.164 157.368 221.207 C 157.112 221.335 156.775 221.308 156.433 221.308 C 156.333 221.308 156.113 221.265 156.026 221.308 C 155.966 221.339 156.062 221.758 156.006 221.814 C 155.962 221.858 155.968 221.953 155.925 221.997 C 155.826 222.095 155.69 222.088 155.599 222.178 C 155.578 222.2 155.112 222.199 155.091 222.178 C 154.923 222.012 154.508 221.997 154.155 221.997 C 154.078 221.997 153.899 221.963 153.83 221.997 C 153.623 222.1 153.71 222.377 153.627 222.543 C 153.588 222.619 153.513 222.616 153.464 222.665 C 153.358 222.77 153.292 222.896 153.22 222.968 C 153.113 223.073 152.493 223.049 152.325 223.049 C 152.332 222.759 152.355 222.517 152.454 222.32 C 152.473 222.282 152.576 222.183 152.576 222.138 C 152.576 222.111 152.519 222.15 152.494 222.138 C 152.419 222.1 152.243 221.854 152.21 221.754 C 152.148 221.567 152.062 221.161 151.946 221.046 C 151.908 221.008 151.952 220.869 151.905 220.823 C 151.864 220.782 151.765 220.728 151.722 220.64 C 151.644 220.486 151.668 220.325 151.559 220.216 C 151.425 220.082 151.646 219.553 151.519 219.427 C 151.473 219.381 151.512 219.298 151.478 219.265 C 151.422 219.209 151.254 218.923 151.254 218.819 C 151.254 218.637 151.254 218.455 151.254 218.273 C 151.254 218.251 151.271 218.108 151.254 218.091 C 151.191 218.029 151.242 217.905 151.194 217.808 C 151.119 217.661 151.094 217.425 150.99 217.322 C 150.907 217.239 151.008 216.832 150.95 216.715 C 150.803 216.423 150.833 216.082 150.726 215.764 C 150.686 215.644 150.773 215.476 150.726 215.359 C 150.678 215.241 150.624 215.082 150.624 214.955 C 150.624 214.921 150.644 214.752 150.624 214.732 C 150.399 214.508 150.522 213.785 150.522 213.417 C 150.522 213.214 150.522 213.012 150.522 212.809 C 150.522 212.777 150.545 212.629 150.522 212.607 C 150.426 212.511 150.4 212.434 150.4 212.283 C 150.405 211.967 150.524 211.785 150.71 211.6 C 150.769 211.54 150.71 211.106 150.71 211.013 C 150.71 210.403 150.608 209.956 150.608 209.333 C 150.608 208.739 150.608 208.146 150.608 207.552 C 150.608 207.289 150.661 206.951 150.547 206.722 C 150.45 206.529 150.569 206.218 150.425 206.075 C 150.398 206.048 150.425 205.835 150.425 205.792 C 150.425 205.629 150.355 205.264 150.425 205.124 C 150.467 205.039 150.507 205.018 150.507 204.901 C 150.507 204.523 150.507 204.146 150.507 203.768 C 150.507 203.731 150.53 203.415 150.507 203.404 C 150.437 203.369 150.466 203.178 150.466 203.08 C 150.466 202.797 150.364 202.651 150.364 202.371 C 150.236 201.657 150.152 200.662 150.415 200.141 C 150.485 200.001 150.788 199.537 150.592 199.343 C 149.833 198.588 150.058 197.042 150.058 195.799 C 150.058 192.847 150.058 189.893 150.058 186.94 C 150.058 185.469 150.147 184.119 150.147 182.777 C 150.147 182.633 150.064 181.667 150.147 181.625 C 150.477 181.461 151.047 179.833 151.216 179.498 C 151.343 179.245 151.583 177.993 151.839 177.993 Z" style="stroke: rgb(0, 0, 0); fill: rgb(229, 3, 3);"/>
</svg>