<?xml version="1.0" encoding="utf-8"?>
<svg viewBox="0 0 500 500" xmlns="http://www.w3.org/2000/svg" xmlns:xlink="http://www.w3.org/1999/xlink" xmlns:bx="https://boxy-svg.com">
  <defs>
    <radialGradient id="aa9bbbd4-ef44-4ca3-807a-29cf227bcd20-57" cx="513.55" cy="208.68" r="10.92" gradientUnits="userSpaceOnUse">
      <stop offset="0" stop-color="#212149"/>
      <stop offset="0.27" stop-color="#201f45" stop-opacity="0.95"/>
      <stop offset="0.63" stop-color="#1c183b" stop-opacity="0.81"/>
      <stop offset="1" stop-color="#170f2c" stop-opacity="0.6"/>
    </radialGradient>
    <radialGradient id="f75c1103-dbdd-40e9-8416-4e642e18aa3d-58" cx="517.23" cy="248.39" r="10.92" xlink:href="#aa9bbbd4-ef44-4ca3-807a-29cf227bcd20-57"/>
    <radialGradient id="ec36dd4b-0cc3-4d86-81db-93869b0f2b53-59" cx="513.55" cy="283.69" r="10.92" xlink:href="#aa9bbbd4-ef44-4ca3-807a-29cf227bcd20-57"/>
    <radialGradient id="a08c9c89-6c7b-4448-9345-21cfa6153722-60" cx="491.25" cy="277.34" r="10.92" gradientTransform="matrix(0.140904, 0, 0, 0.183536, 39.276458, 166.308067)" xlink:href="#aa9bbbd4-ef44-4ca3-807a-29cf227bcd20-57"/>
    <radialGradient id="f46b9fb5-5ad5-4ca4-9cd1-b2bf013e2a18-61" cx="491.25" cy="314.84" r="10.92" gradientTransform="matrix(0.140904, 0, 0, 0.183536, 39.276469, 173.581699)" xlink:href="#aa9bbbd4-ef44-4ca3-807a-29cf227bcd20-57"/>
    <radialGradient id="fc3266a2-4bdb-4538-8728-bd62083ffd21-62" cx="536.66" cy="331.02" r="10.92" gradientTransform="matrix(0.069487, 0, 0, 0.183536, 54.762619, 176.719123)" xlink:href="#aa9bbbd4-ef44-4ca3-807a-29cf227bcd20-57"/>
    <radialGradient id="fa09a408-e8f2-48b5-9115-b1d0155c2f4f-63" cx="504.16" cy="378.09" r="10.92" gradientTransform="matrix(0.069487, 0, 0, 0.183536, 52.746522, 185.844894)" xlink:href="#aa9bbbd4-ef44-4ca3-807a-29cf227bcd20-57"/>
    <radialGradient id="fca221e4-dacf-4335-8ab4-56b46fb39daf-64" cx="445.26" cy="533.25" r="10.92" gradientTransform="matrix(0.069487, 0, 0, 0.183536, 49.092816, 215.934629)" xlink:href="#aa9bbbd4-ef44-4ca3-807a-29cf227bcd20-57"/>
    <radialGradient id="f2997733-82f7-43b3-b4a2-9aeda5f60e4b-65" cx="481.82" cy="601.64" r="10.92" gradientTransform="matrix(0.069487, 0, 0, 0.183536, 51.36097, 229.196525)" xlink:href="#aa9bbbd4-ef44-4ca3-807a-29cf227bcd20-57"/>
    <radialGradient id="ec2ecb09-d4ef-422b-ae79-01558496b342-66" cx="569.16" cy="670.77" r="10.92" gradientTransform="matrix(0.069487, 0, 0, 0.183536, 56.776918, 242.599697)" xlink:href="#aa9bbbd4-ef44-4ca3-807a-29cf227bcd20-57"/>
    <radialGradient id="af02bd59-7446-488a-b8fc-bdc2c13ac0e6-67" cx="422.57" cy="533.25" r="10.92" gradientTransform="matrix(-0.069487, 0, 0, 0.183536, 269.970579, 215.934482)" xlink:href="#aa9bbbd4-ef44-4ca3-807a-29cf227bcd20-57"/>
    <radialGradient id="b5addac3-d630-47be-b564-26fd2b071e44-68" cx="459.13" cy="601.64" r="10.92" gradientTransform="matrix(-0.069487, 0, 0, 0.183536, 267.702905, 229.19636)" xlink:href="#aa9bbbd4-ef44-4ca3-807a-29cf227bcd20-57"/>
    <radialGradient id="e2b10429-1806-4563-a497-43955a3c409a-69" cx="546.46" cy="670.77" r="10.92" gradientTransform="matrix(-0.069487, 0, 0, 0.183536, 262.286457, 242.599549)" xlink:href="#aa9bbbd4-ef44-4ca3-807a-29cf227bcd20-57"/>
    <radialGradient id="b449913b-a3bd-4b7e-b74e-3a16dce6057b-70" cx="480.03" cy="277.34" r="10.92" gradientTransform="matrix(-0.140904, 0, 0, 0.183536, 279.785448, 166.307818)" xlink:href="#aa9bbbd4-ef44-4ca3-807a-29cf227bcd20-57"/>
    <radialGradient id="bce6c7e1-aabc-4c98-abcc-29250c8d974d-71" cx="480.03" cy="314.84" r="10.92" gradientTransform="matrix(-0.140904, 0, 0, 0.183536, 279.785349, 173.581544)" xlink:href="#aa9bbbd4-ef44-4ca3-807a-29cf227bcd20-57"/>
    <radialGradient id="b10cd907-f59d-4772-b6f8-ffb2d28c9e39-72" cx="513.96" cy="331.02" r="10.92" gradientTransform="matrix(-0.069487, 0, 0, 0.183536, 264.300651, 176.719018)" xlink:href="#aa9bbbd4-ef44-4ca3-807a-29cf227bcd20-57"/>
    <radialGradient id="a28a0d57-7e7e-49a6-bfc5-af83b54b7f1a-73" cx="481.47" cy="378.09" r="10.92" gradientTransform="matrix(-0.069487, 0, 0, 0.183536, 266.316757, 185.844688)" xlink:href="#aa9bbbd4-ef44-4ca3-807a-29cf227bcd20-57"/>
    <radialGradient id="b67486d2-28a2-4f82-9a1f-909f0b144cbf-74" cx="558.41" cy="294.72" r="10.92" xlink:href="#aa9bbbd4-ef44-4ca3-807a-29cf227bcd20-57"/>
    <radialGradient id="f76811de-0b5d-4efb-a2df-9fe3ccd8d456-75" cx="653.27" cy="285.89" r="10.92" xlink:href="#aa9bbbd4-ef44-4ca3-807a-29cf227bcd20-57"/>
    <radialGradient id="b7b52b38-6a72-4f89-b212-7aab327f5f79-76" cx="653.27" cy="217.5" r="10.92" xlink:href="#aa9bbbd4-ef44-4ca3-807a-29cf227bcd20-57"/>
    <radialGradient id="f0303255-e146-4596-9c51-c51b560eb4fb-77" cx="610.62" cy="294.72" r="10.92" xlink:href="#aa9bbbd4-ef44-4ca3-807a-29cf227bcd20-57"/>
    <radialGradient id="b13687c7-cd46-4f44-ab29-b845786a55b0-78" cx="653.27" cy="252.07" r="10.92" xlink:href="#aa9bbbd4-ef44-4ca3-807a-29cf227bcd20-57"/>
    <radialGradient id="e4017582-7cc3-4ac4-be99-2b4943951817-79" cx="551.26" cy="647.79" r="11.66" xlink:href="#aa9bbbd4-ef44-4ca3-807a-29cf227bcd20-57"/>
    <radialGradient id="ad01df78-22d8-4ee7-8853-2fc7c66e3b71-80" cx="479.24" cy="650.56" r="11.43" xlink:href="#aa9bbbd4-ef44-4ca3-807a-29cf227bcd20-57"/>
    <radialGradient id="e5a5dc48-fbd4-48c2-9cbf-92bd2991bcf4-81" cx="507.5" cy="647.79" r="11.43" xlink:href="#aa9bbbd4-ef44-4ca3-807a-29cf227bcd20-57"/>
    <radialGradient id="e602db05-3e75-4048-afe7-67e8fbe7b2d8-82" cx="547.94" cy="692.66" r="11.66" xlink:href="#aa9bbbd4-ef44-4ca3-807a-29cf227bcd20-57"/>
    <radialGradient id="a676eb09-aa41-45f8-978f-be6c5f3689b5-83" cx="614.98" cy="692.66" r="11.43" xlink:href="#aa9bbbd4-ef44-4ca3-807a-29cf227bcd20-57"/>
    <radialGradient id="a937236e-0e06-4591-b47e-3dd295b2bcb0-84" cx="614.98" cy="724.8" r="12.53" xlink:href="#aa9bbbd4-ef44-4ca3-807a-29cf227bcd20-57"/>
    <radialGradient id="b39e97d1-ca86-432b-bd97-52352e7b3773-85" cx="551.26" cy="724.8" r="12.21" xlink:href="#aa9bbbd4-ef44-4ca3-807a-29cf227bcd20-57"/>
    <radialGradient id="fc474cf9-3058-4652-a3eb-1b903cb1f5bb-86" cx="614.98" cy="647.79" r="11.43" xlink:href="#aa9bbbd4-ef44-4ca3-807a-29cf227bcd20-57"/>
    <radialGradient id="ad9ade79-bd55-4960-b46c-c177ee8625dc-87" cx="659.3" cy="650.56" r="11.66" xlink:href="#aa9bbbd4-ef44-4ca3-807a-29cf227bcd20-57"/>
    <radialGradient id="e263ef8a-1c9f-4b4d-bc1b-0aff5b6a28d8-88" cx="687.55" cy="664.41" r="11.98" xlink:href="#aa9bbbd4-ef44-4ca3-807a-29cf227bcd20-57"/>
  </defs>
  <path d="M 308.898 482.617 C 238.044 482.617 182.542 472.469 182.542 459.514 C 182.542 446.558 238.044 436.41 308.898 436.41 C 379.752 436.41 435.254 446.558 435.254 459.514 C 435.254 472.469 379.752 482.617 308.898 482.617 Z M 308.898 437.595 C 241.022 437.595 183.677 447.633 183.677 459.514 C 183.677 471.395 241.022 481.432 308.898 481.432 C 376.775 481.432 434.118 471.395 434.118 459.514 C 434.118 447.633 376.775 437.595 308.898 437.595 Z" fill="#f2f2f2" style=""/>
  <path d="M 455.364 283.613 C 455.372 295.456 454.257 307.27 452.036 318.884 C 451.696 320.673 451.327 322.455 450.929 324.228 C 450.696 325.294 450.452 326.356 450.197 327.415 C 450.032 328.102 449.862 328.789 449.686 329.477 C 436.899 379.773 403.859 421.831 359.096 444.792 C 351.834 448.522 344.327 451.703 336.629 454.312 C 335.46 454.709 334.284 455.094 333.103 455.467 L 333.097 455.467 C 316.946 460.55 300.164 463.125 283.293 463.109 C 280.874 463.109 278.488 463.051 276.137 462.937 C 269.773 462.647 263.435 461.913 257.164 460.739 C 180.107 446.214 142.36 367.058 111.222 283.613 C 110.449 281.546 109.69 279.492 108.945 277.452 C 108.762 276.949 108.581 276.446 108.399 275.942 C 25.577 47.49 115.395 -10.321 283.293 104.118 C 362.849 158.339 455.364 184.482 455.364 283.613 Z" style="fill: rgb(12, 11, 11);"/>
  <path d="M 336.43 390.806 L 335.643 389.952 C 335.767 389.828 348.055 377.272 352.735 353.811 C 357.057 332.143 355.59 296.466 324.051 249.554 C 299.861 213.574 290.073 182.14 294.957 156.123 C 299.247 133.267 313.839 123.227 313.986 123.128 L 314.601 124.124 C 314.459 124.22 300.249 134.024 296.064 156.388 C 291.259 182.069 300.987 213.186 324.981 248.873 C 339.012 269.745 348.352 290.183 352.743 309.622 C 356.261 325.2 356.628 340.174 353.832 354.128 C 349.065 377.92 336.557 390.68 336.43 390.806 Z" style="fill: rgb(255, 247, 0);"/>
  <path d="M 216.018 445.899 L 215.231 445.045 C 215.388 444.889 230.88 429.064 236.783 399.493 C 242.236 372.185 240.395 327.225 200.657 268.117 C 184.054 243.421 172.731 220.087 167.004 198.766 C 162.324 181.343 161.333 165.147 164.059 150.628 C 169.447 121.92 187.763 109.317 187.947 109.194 L 188.563 110.189 C 188.382 110.311 170.449 122.677 165.166 150.892 C 159.105 183.263 171.359 222.475 201.587 267.437 C 219.239 293.693 230.988 319.402 236.511 343.853 C 240.935 363.439 241.396 382.266 237.881 399.81 C 231.889 429.712 216.176 445.74 216.018 445.899 Z" style="fill: rgb(255, 255, 3);"/>
  <circle cx="199.118" cy="-15.49" r="88.201" transform="matrix(0.498439, 0, 0, 0.519944, 78.641389, 137.506258)" style="fill: rgb(248, 0, 0);"/>
  <path d="M 188.255 172.176 C 142.144 172.176 113.324 120.106 136.38 78.45 C 159.435 36.793 217.074 36.793 240.129 78.45 C 245.387 87.948 248.155 98.724 248.155 109.692 C 248.118 144.184 221.322 172.137 188.255 172.176 Z M 188.255 48.392 C 143.018 48.392 114.745 99.476 137.363 140.342 C 159.982 181.208 216.528 181.208 239.146 140.342 C 244.304 131.023 247.019 120.452 247.019 109.692 C 246.982 75.853 220.694 48.43 188.255 48.392 Z" style="fill: rgb(251, 247, 0);"/>
  <circle cx="287.32" cy="184.577" r="73.143" transform="matrix(0.498439, 0, 0, 0.519944, 78.641389, 137.506258)" style="fill: rgb(255, 0, 0);"/>
  <circle cx="250.031" cy="438.424" r="73.143" transform="matrix(0.498439, 0, 0, 0.519944, 78.641389, 137.506258)" style="fill: rgb(255, 0, 0);"/>
  <path d="M 450.197 327.415 C 449.816 325.366 449.424 323.343 449.021 321.349 C 449.018 321.349 449.016 321.346 449.016 321.343 C 443.916 296.101 437.044 275.403 428.906 258.519 L 407.343 250.783 L 423.596 248.36 C 417.026 236.731 409.786 227.205 402.091 219.474 L 362.485 224.196 L 392.38 210.831 C 337.442 167.724 265.416 202.348 245.79 213.231 C 243.098 214.718 241.393 215.767 240.849 216.104 C 240.843 216.104 240.843 216.104 240.838 216.11 C 240.718 216.187 240.661 216.222 240.661 216.222 L 251.803 222.258 L 251.809 222.258 L 449.686 329.477 L 450.197 327.415 Z" style="" fill="#ff63a6"/>
  <path d="M 450.197 327.415 C 450.452 326.355 450.696 325.292 450.929 324.228 C 450.35 323.345 449.714 322.38 449.021 321.349 C 449.018 321.349 449.016 321.346 449.016 321.343 C 426.197 287.31 342.558 176.105 246.215 213.853 L 246.21 213.853 C 244.426 214.552 242.64 215.303 240.849 216.104 C 240.843 216.104 240.843 216.104 240.838 216.11 C 239.207 216.838 237.575 217.613 235.942 218.432 C 235.113 218.841 234.289 219.268 233.461 219.7 C 232.739 220.079 232.023 220.464 231.302 220.861 C 231.302 220.861 227.202 221.933 222.608 225.973 C 213.584 233.924 202.646 253.348 217.139 298.702 C 217.139 298.702 230.008 336.277 223.573 353.729 C 217.139 371.169 257.034 391.299 268.602 353.729 C 280.181 316.148 284.048 279.911 284.048 279.911 C 284.048 279.911 297.36 309.169 296.048 338.51 C 295.508 350.536 296.536 362.574 299.643 374.155 C 299.961 375.369 300.307 376.584 300.653 377.816 C 304.839 392.478 311.37 411.339 320.99 429.579 C 325.522 438.27 330.754 446.545 336.629 454.312 C 344.327 451.703 351.834 448.522 359.095 444.792 C 403.859 421.831 436.899 379.773 449.686 329.477 L 450.197 327.415 Z" style="" fill="#3f3d56"/>
  <polygon points="235.157 234.282 230.01 189.994 251.882 222.203 235.157 234.282" fill="#3f3d56" style=""/>
  <polygon points="223.942 237.472 218.796 193.185 240.668 225.393 223.942 237.472" fill="#3f3d56" style=""/>
  <polygon points="212.74 278.741 157.788 204.232 213.442 256.363 212.74 278.741" style="" fill="#ff63a6"/>
  <polygon points="231.567 198.816 231.565 198.816 245.032 213.012 236.318 215.337" style="fill: rgb(255, 99, 166);" transform="matrix(0.987015, 0.160628, -0.160628, 0.987015, 36.210095, -35.593827)" bx:origin="0.497 0.445"/>
  <polygon points="219.983 202.067 219.979 202.062 231.563 214.753 226.951 223.318" style="fill: rgb(255, 99, 166);" transform="matrix(0.987015, 0.160628, -0.160628, 0.987015, 36.907353, -33.512959)" bx:origin="0.497 0.445"/>
  <rect x="230.681" y="209.259" width="12.715" height="13.264" fill="#6c63ff" opacity="0.2" style=""/>
  <path d="M 248.286 212.874 L 260.777 209.259 L 260.777 222.523 L 248.062 222.523 L 248.286 212.874 Z" fill="#6c63ff" style=""/>
  <rect x="265.437" y="209.259" width="12.715" height="13.264" fill="#6c63ff" opacity="0.2" style=""/>
  <rect x="282.817" y="209.259" width="12.715" height="13.264" fill="#6c63ff" opacity="0.2" style=""/>
  <rect x="300.193" y="209.259" width="12.715" height="13.264" fill="#6c63ff" opacity="0.2" style=""/>
  <path d="M 317.573 210.541 L 330.289 214.74 L 330.289 222.523 L 317.573 222.523 L 317.573 210.541 Z" fill="#6c63ff" style=""/>
  <path d="M 334.842 216.489 L 341.632 219.521 L 347.669 222.523 L 334.954 222.523 L 334.842 216.489 Z" fill="#6c63ff" opacity="0.2" style=""/>
  <path d="M 221.573 225.825 L 226.686 225.825 L 226.016 239.321 L 213.3 239.321 L 221.573 225.825 Z" fill="#6c63ff" opacity="0.2" style=""/>
  <rect x="230.681" y="226.058" width="12.715" height="13.264" fill="#6c63ff" opacity="0.4" style=""/>
  <rect x="248.062" y="226.058" width="12.715" height="13.264" fill="#6c63ff" style=""/>
  <rect x="265.437" y="226.058" width="12.715" height="13.264" fill="#6c63ff" opacity="0.4" style=""/>
  <rect x="282.817" y="226.058" width="12.715" height="13.264" fill="#6c63ff" opacity="0.2" style=""/>
  <rect x="300.193" y="226.058" width="12.715" height="13.264" fill="#6c63ff" opacity="0.4" style=""/>
  <rect x="317.573" y="226.058" width="12.715" height="13.264" fill="#6c63ff" style=""/>
  <rect x="334.954" y="226.058" width="12.715" height="13.264" fill="#6c63ff" opacity="0.4" style=""/>
  <path d="M 352.33 225.475 L 365.045 233.172 L 365.045 239.321 L 352.33 239.321 L 352.33 225.475 Z" fill="#6c63ff" opacity="0.4" style=""/>
  <path d="M 369.822 236.438 L 371.246 237.72 L 373.481 239.438 L 369.71 239.321 L 369.822 236.438 Z" fill="#6c63ff" opacity="0.2" style=""/>
  <rect x="213.3" y="242.863" width="12.715" height="13.264" fill="#6c63ff" opacity="0.2" style=""/>
  <rect x="230.681" y="242.863" width="12.715" height="13.264" fill="#6c63ff" opacity="0.4" style=""/>
  <rect x="248.062" y="242.863" width="12.715" height="13.264" fill="#6c63ff" opacity="0.4" style=""/>
  <rect x="265.437" y="242.863" width="12.715" height="13.264" fill="#6c63ff" style=""/>
  <rect x="282.817" y="242.863" width="12.715" height="13.264" fill="#6c63ff" opacity="0.2" style=""/>
  <rect x="300.193" y="242.863" width="12.715" height="13.264" fill="#6c63ff" opacity="0.4" style=""/>
  <rect x="317.573" y="242.863" width="12.715" height="13.264" fill="#6c63ff" style=""/>
  <rect x="334.954" y="242.863" width="12.715" height="13.264" fill="#6c63ff" opacity="0.2" style=""/>
  <rect x="352.329" y="242.863" width="12.715" height="13.264" fill="#6c63ff" opacity="0.4" style=""/>
  <rect x="369.71" y="242.863" width="12.715" height="13.264" fill="#6c63ff" opacity="0.2" style=""/>
  <path d="M 387.203 250.21 L 389.968 252.542 L 393.993 256.359 L 387.091 256.127 L 387.203 250.21 Z" fill="#6c63ff" style=""/>
  <rect x="213.3" y="259.662" width="12.715" height="13.264" fill="#6c63ff" opacity="0.2" style=""/>
  <rect x="230.681" y="259.662" width="12.715" height="13.264" fill="#6c63ff" opacity="0.2" style=""/>
  <rect x="248.062" y="259.662" width="12.715" height="13.264" fill="#6c63ff" opacity="0.4" style=""/>
  <rect x="265.437" y="259.662" width="12.715" height="13.264" fill="#6c63ff" opacity="0.4" style=""/>
  <rect x="282.817" y="259.662" width="12.715" height="13.264" fill="#6c63ff" style=""/>
  <rect x="300.193" y="259.662" width="12.715" height="13.264" fill="#6c63ff" opacity="0.2" style=""/>
  <rect x="317.573" y="259.662" width="12.715" height="13.264" fill="#6c63ff" opacity="0.4" style=""/>
  <rect x="334.954" y="259.662" width="12.715" height="13.264" fill="#6c63ff" opacity="0.4" style=""/>
  <rect x="352.329" y="259.662" width="12.715" height="13.264" fill="#6c63ff" opacity="0.4" style=""/>
  <rect x="369.71" y="259.662" width="12.715" height="13.264" fill="#6c63ff" opacity="0.4" style=""/>
  <rect x="387.091" y="259.662" width="12.715" height="13.264" fill="#6c63ff" opacity="0.2" style=""/>
  <path d="M 404.467 266.659 L 406.673 268.875 L 410.362 272.809 L 404.467 272.926 L 404.467 266.659 Z" fill="#6c63ff" opacity="0.2" style=""/>
  <rect x="213.3" y="276.466" width="12.715" height="13.264" fill="#6c63ff" opacity="0.2" style=""/>
  <rect x="230.681" y="276.466" width="12.715" height="13.264" fill="#6c63ff" opacity="0.2" style=""/>
  <rect x="248.062" y="276.466" width="12.715" height="13.264" fill="#6c63ff" opacity="0.4" style=""/>
  <rect x="265.437" y="276.466" width="12.715" height="13.264" fill="#6c63ff" style=""/>
  <path d="M 282.817 276.466 L 295.533 276.466 L 295.533 289.731 L 288 289.982 L 282.817 276.466 Z" fill="#6c63ff" opacity="0.2" style=""/>
  <rect x="300.193" y="276.466" width="12.715" height="13.264" fill="#6c63ff" style=""/>
  <rect x="317.573" y="276.466" width="12.715" height="13.264" fill="#6c63ff" style=""/>
  <rect x="334.954" y="276.466" width="12.715" height="13.264" fill="#6c63ff" style=""/>
  <rect x="352.329" y="276.466" width="12.715" height="13.264" fill="#6c63ff" opacity="0.2" style=""/>
  <rect x="369.71" y="276.466" width="12.715" height="13.264" fill="#6c63ff" style=""/>
  <rect x="387.091" y="276.466" width="12.715" height="13.264" fill="#6c63ff" opacity="0.2" style=""/>
  <path d="M 404.467 276.466 L 417.182 276.466 L 417.182 289.731 L 404.467 289.731 L 404.467 276.466 Z" fill="#6c63ff" opacity="0.2" style=""/>
  <path d="M 421.847 285.446 L 423.718 287.313 L 425.507 289.847 L 421.847 289.731 L 421.847 285.446 Z" fill="#6c63ff" opacity="0.2" style=""/>
  <path d="M 215.425 293.149 L 226.016 293.266 L 226.016 306.53 L 219.896 306.763 L 215.425 293.149 Z" fill="#6c63ff" opacity="0.2" style=""/>
  <rect x="230.681" y="293.266" width="12.715" height="13.264" fill="#6c63ff" opacity="0.2" style=""/>
  <rect x="248.062" y="293.266" width="12.715" height="13.264" fill="#6c63ff" opacity="0.2" style=""/>
  <rect x="265.437" y="293.266" width="12.715" height="13.264" fill="#6c63ff" style=""/>
  <path d="M 289.326 293.014 L 295.533 293.266 L 295.533 306.53 L 292.941 307.032 L 289.326 293.014 Z" fill="#6c63ff" opacity="0.2" style=""/>
  <rect x="300.193" y="293.266" width="12.715" height="13.264" fill="#6c63ff" style=""/>
  <rect x="317.573" y="293.266" width="12.715" height="13.264" fill="#6c63ff" style=""/>
  <rect x="334.954" y="293.266" width="12.715" height="13.264" fill="#6c63ff" opacity="0.2" style=""/>
  <rect x="352.329" y="293.266" width="12.715" height="13.264" fill="#6c63ff" opacity="0.2" style=""/>
  <rect x="369.71" y="293.266" width="12.715" height="13.264" fill="#6c63ff" opacity="0.2" style=""/>
  <rect x="387.091" y="293.266" width="12.715" height="13.264" fill="#6c63ff" opacity="0.2" style=""/>
  <rect x="404.467" y="293.266" width="12.715" height="13.264" fill="#6c63ff" opacity="0.2" style=""/>
  <path d="M 421.847 293.266 L 428.75 293.266 L 438.699 306.413 L 421.847 306.53 L 421.847 293.266 Z" fill="#6c63ff" opacity="0.2" style=""/>
  <path d="M 220.455 310.304 L 226.016 310.07 L 226.016 323.334 L 223.698 323.101 L 220.455 310.304 Z" fill="#6c63ff" opacity="0.2" style=""/>
  <rect x="230.681" y="310.07" width="12.715" height="13.264" fill="#6c63ff" opacity="0.2" style=""/>
  <rect x="248.062" y="310.07" width="12.715" height="13.264" fill="#6c63ff" opacity="0.2" style=""/>
  <rect x="265.437" y="310.07" width="12.715" height="13.264" fill="#6c63ff" opacity="0.2" style=""/>
  <rect x="300.193" y="310.07" width="12.715" height="13.264" fill="#6c63ff" opacity="0.2" style=""/>
  <rect x="317.573" y="310.07" width="12.715" height="13.264" fill="#6c63ff" opacity="0.2" style=""/>
  <rect x="334.954" y="310.07" width="12.715" height="13.264" fill="#6c63ff" opacity="0.2" style=""/>
  <rect x="352.329" y="310.07" width="12.715" height="13.264" fill="#6c63ff" style=""/>
  <rect x="369.71" y="310.07" width="12.715" height="13.264" fill="#6c63ff" opacity="0.2" style=""/>
  <rect x="387.091" y="310.07" width="12.715" height="13.264" fill="#6c63ff" opacity="0.2" style=""/>
  <rect x="404.467" y="310.07" width="12.715" height="13.264" fill="#6c63ff" opacity="0.2" style=""/>
  <rect x="421.847" y="310.07" width="12.715" height="13.264" fill="#6c63ff" opacity="0.2" style=""/>
  <path d="M 439.223 310.07 L 441.067 310.07 L 450.206 323.334 L 439.223 323.334 L 439.223 310.07 Z" fill="#6c63ff" opacity="0.2" style="stroke-linecap: round; stroke-linejoin: round;"/>
  <path d="M 224.39 328.845 L 226.149 328.845 L 226.149 342.109 L 225.619 342.109 L 224.39 328.845 Z" fill="#6c63ff" opacity="0.2" style=""/>
  <rect x="230.814" y="328.845" width="12.715" height="13.264" fill="#6c63ff" opacity="0.2" style=""/>
  <rect x="248.195" y="328.845" width="12.715" height="13.264" fill="#6c63ff" style=""/>
  <path d="M 265.571 328.845 L 275.491 328.845 L 271.801 342.109 L 265.571 342.109 L 265.571 328.845 Z" fill="#6c63ff" opacity="0.2" style=""/>
  <rect x="300.327" y="328.845" width="12.715" height="13.264" fill="#6c63ff" opacity="0.2" style=""/>
  <rect x="317.707" y="328.845" width="12.715" height="13.264" fill="#6c63ff" style=""/>
  <rect x="335.088" y="328.845" width="12.715" height="13.264" fill="#6c63ff" opacity="0.2" style=""/>
  <rect x="352.463" y="328.845" width="12.715" height="13.264" fill="#6c63ff" opacity="0.2" style=""/>
  <rect x="369.844" y="328.845" width="12.715" height="13.264" fill="#6c63ff" opacity="0.2" style=""/>
  <rect x="387.224" y="328.845" width="12.715" height="13.264" fill="#6c63ff" opacity="0.2" style=""/>
  <rect x="404.6" y="328.845" width="12.715" height="13.264" fill="#6c63ff" opacity="0.2" style=""/>
  <rect x="421.981" y="328.845" width="12.715" height="13.264" fill="#6c63ff" opacity="0.2" style=""/>
  <path d="M 439.356 328.845 L 449.763 328.845 L 446.107 341.709 L 439.356 342.109 L 439.356 328.845 Z" fill="#6c63ff" style=""/>
  <path d="M 224.837 345.645 L 226.149 345.645 L 226.149 358.909 L 222.825 359.025 L 224.837 345.645 Z" fill="#6c63ff" opacity="0.2" style=""/>
  <rect x="230.814" y="345.645" width="12.715" height="13.264" fill="#6c63ff" opacity="0.4" style=""/>
  <rect x="248.195" y="345.645" width="12.715" height="13.264" fill="#6c63ff" style=""/>
  <path d="M 265.571 345.645 L 270.907 345.529 L 266.77 358.676 L 265.571 358.909 L 265.571 345.645 Z" fill="#6c63ff" opacity="0.4" style=""/>
  <rect x="300.327" y="345.645" width="12.715" height="13.264" fill="#6c63ff" opacity="0.4" style=""/>
  <rect x="317.707" y="345.645" width="12.715" height="13.264" fill="#6c63ff" style=""/>
  <rect x="335.088" y="345.645" width="12.715" height="13.264" fill="#6c63ff" opacity="0.4" style=""/>
  <rect x="352.463" y="345.645" width="12.715" height="13.264" fill="#6c63ff" opacity="0.4" style=""/>
  <rect x="369.844" y="345.645" width="12.715" height="13.264" fill="#6c63ff" opacity="0.2" style=""/>
  <rect x="387.224" y="345.645" width="12.715" height="13.264" fill="#6c63ff" opacity="0.4" style=""/>
  <rect x="404.6" y="345.645" width="12.715" height="13.264" fill="#6c63ff" opacity="0.4" style=""/>
  <rect x="421.981" y="345.645" width="12.715" height="13.264" fill="#6c63ff" opacity="0.2" style=""/>
  <path d="M 439.356 345.645 L 444.568 345.846 L 439.373 359.009 L 439.356 358.909 L 439.356 345.645 Z" fill="#6c63ff" opacity="0.2" style=""/>
  <path d="M 230.814 362.45 L 243.529 362.45 L 243.529 375.713 L 230.703 371.049 L 230.814 362.45 Z" fill="#6c63ff" opacity="0.4" style=""/>
  <path d="M 248.195 362.45 L 260.91 362.45 L 260.91 368.366 L 248.195 375.713 L 248.195 362.45 Z" fill="#6c63ff" opacity="0.4" style=""/>
  <rect x="300.327" y="362.45" width="12.715" height="13.264" fill="#6c63ff" opacity="0.4" style=""/>
  <rect x="317.707" y="362.45" width="12.715" height="13.264" fill="#6c63ff" style=""/>
  <rect x="335.088" y="362.45" width="12.715" height="13.264" fill="#6c63ff" opacity="0.2" style=""/>
  <rect x="352.463" y="362.45" width="12.715" height="13.264" fill="#6c63ff" opacity="0.4" style=""/>
  <rect x="369.844" y="362.45" width="12.715" height="13.264" fill="#6c63ff" opacity="0.2" style=""/>
  <rect x="387.224" y="362.45" width="12.715" height="13.264" fill="#6c63ff" style=""/>
  <rect x="404.6" y="362.45" width="12.715" height="13.264" fill="#6c63ff" opacity="0.2" style=""/>
  <path d="M 437.966 362.45 L 431.233 375.513 L 421.981 375.713 L 421.981 362.45 L 437.966 362.45 Z" fill="#6c63ff" opacity="0.7" style=""/>
  <path d="M 434.945 362.19 L 434.945 375.973 L 421.731 375.973 L 421.731 362.19 L 434.945 362.19 Z M 422.23 375.454 L 434.447 375.454 L 434.447 362.71 L 422.23 362.71 L 422.23 375.454 Z" style="fill: none;"/>
  <path d="M 434.945 362.19 L 434.945 375.973 L 421.731 375.973 L 421.731 362.19 L 434.945 362.19 Z M 422.23 375.454 L 434.447 375.454 L 434.447 362.71 L 422.23 362.71 L 422.23 375.454 Z" style="fill: none;"/>
  <path d="M 434.945 362.19 L 434.945 375.973 L 421.731 375.973 L 421.731 362.19 L 434.945 362.19 Z M 422.23 375.454 L 434.447 375.454 L 434.447 362.71 L 422.23 362.71 L 422.23 375.454 Z" style="fill: none;"/>
  <path d="M 434.945 362.19 L 434.945 375.973 L 421.731 375.973 L 421.731 362.19 L 434.945 362.19 Z M 422.23 375.454 L 434.447 375.454 L 434.447 362.71 L 422.23 362.71 L 422.23 375.454 Z" style="fill: none;"/>
  <path d="M 434.945 362.19 L 434.945 375.973 L 421.731 375.973 L 421.731 362.19 L 434.945 362.19 Z M 422.23 375.454 L 434.447 375.454 L 434.447 362.71 L 422.23 362.71 L 422.23 375.454 Z" style="fill: none;"/>
  <path d="M 434.945 362.19 L 434.945 375.973 L 421.731 375.973 L 421.731 362.19 L 434.945 362.19 Z M 422.23 375.454 L 434.447 375.454 L 434.447 362.71 L 422.23 362.71 L 422.23 375.454 Z" style="fill: none;"/>
  <path d="M 301.291 379.249 L 313.041 379.249 L 313.041 392.513 L 305.268 392.387 L 301.291 379.249 Z" fill="#6c63ff" opacity="0.2" style=""/>
  <rect x="317.707" y="379.249" width="12.715" height="13.264" fill="#6c63ff" opacity="0.4" style=""/>
  <rect x="335.088" y="379.249" width="12.715" height="13.264" fill="#6c63ff" opacity="0.4" style=""/>
  <rect x="352.463" y="379.249" width="12.715" height="13.264" fill="#6c63ff" opacity="0.4" style=""/>
  <rect x="369.844" y="379.249" width="12.715" height="13.264" fill="#6c63ff" opacity="0.4" style=""/>
  <rect x="387.224" y="379.249" width="12.715" height="13.264" fill="#6c63ff" opacity="0.2" style=""/>
  <rect x="404.6" y="379.249" width="12.715" height="13.264" fill="#6c63ff" opacity="0.2" style=""/>
  <path d="M 421.981 379.249 L 428.732 379.35 L 421.709 390.205 L 421.692 390.406 L 421.981 379.249 Z" fill="#6c63ff" opacity="0.2" style=""/>
  <path d="M 306.353 395.677 L 313.041 396.054 L 313.041 409.318 L 311.414 409.192 L 306.353 395.677 Z" fill="#6c63ff" style=""/>
  <rect x="317.707" y="396.054" width="12.715" height="13.264" fill="#6c63ff" style=""/>
  <rect x="335.088" y="396.054" width="12.715" height="13.264" fill="#6c63ff" style=""/>
  <rect x="352.463" y="396.054" width="12.715" height="13.264" fill="#6c63ff" opacity="0.2" style=""/>
  <rect x="369.844" y="396.054" width="12.715" height="13.264" fill="#6c63ff" style=""/>
  <rect x="387.224" y="396.054" width="12.715" height="13.264" fill="#6c63ff" opacity="0.2" style=""/>
  <path d="M 404.6 396.054 L 417.315 396.054 L 411.336 403.51 L 404.703 410.608 L 404.6 396.054 Z" fill="#6c63ff" opacity="0.2" style=""/>
  <rect x="317.707" y="412.853" width="12.715" height="13.264" fill="#6c63ff" style=""/>
  <rect x="335.088" y="412.853" width="12.715" height="13.264" fill="#6c63ff" opacity="0.2" style=""/>
  <rect x="352.463" y="412.853" width="12.715" height="13.264" fill="#6c63ff" opacity="0.2" style=""/>
  <rect x="369.844" y="412.853" width="12.715" height="13.264" fill="#6c63ff" opacity="0.2" style=""/>
  <path d="M 387.224 412.853 L 402.723 412.961 L 395.197 420.095 L 387.121 426.547 L 387.224 412.853 Z" fill="#6c63ff" opacity="0.2" style=""/>
  <path d="M 321.081 429.658 L 330.422 429.658 L 329.82 443.928 L 326.143 438.145 L 321.081 429.658 Z" fill="#6c63ff" opacity="0.2" style=""/>
  <rect x="335.088" y="429.658" width="12.715" height="13.264" fill="#6c63ff" opacity="0.2" style=""/>
  <path d="M 352.463 429.658 L 365.178 429.658 L 365.178 442.922 L 352.463 442.922 L 352.463 429.658 Z" fill="#6c63ff" style=""/>
  <path d="M 369.844 429.658 L 383.177 429.765 L 373.384 436.469 L 369.844 438.942 L 369.844 429.658 Z" fill="#6c63ff" opacity="0.2" style=""/>
  <path d="M 319.969 226.655 L 319.969 213.429 L 326.918 213.429 C 322.229 191.124 307.509 174.06 289.311 170.61 L 289.311 179.956 L 275.399 179.956 L 275.399 170.665 C 257.33 174.239 242.74 191.24 238.077 213.429 L 244.74 213.429 L 244.74 226.655 L 236.542 226.655 C 236.524 227.328 236.511 228.002 236.511 228.674 C 236.511 261.102 257.102 287.387 282.502 287.387 C 307.901 287.387 328.485 261.105 328.485 228.679 C 328.485 228.002 328.473 227.328 328.455 226.66 L 319.969 226.655 Z" fill="#fff" style="" transform="matrix(0.741807, -0.670613, 0.670613, 0.741807, -80.630471, 248.572666)"/>
  <path d="M 270.32 232.709 C 270.32 241.022 260.857 246.216 253.287 242.06 C 249.774 240.132 247.609 236.567 247.609 232.709 C 247.609 226.746 252.693 223.8 258.964 223.8 C 265.235 223.8 270.32 226.746 270.32 232.709 Z" opacity="0.1" style="" transform="matrix(0.741807, -0.670613, 0.670613, 0.741807, -89.833665, 233.994724)"/>
  <path d="M 268.997 232.728 C 268.89 240.105 260.424 244.606 253.759 240.829 C 250.751 239.124 248.888 236.058 248.84 232.728 C 248.84 227.435 253.353 225.035 258.92 225.035 C 264.486 225.035 268.997 227.435 268.997 232.728 Z" style="" fill="#6c63ff" transform="matrix(0.741807, -0.670613, 0.670613, 0.741807, -89.814111, 233.95177)"/>
  <circle cx="513.55" cy="208.68" r="10.92" fill="url(#aa9bbbd4-ef44-4ca3-807a-29cf227bcd20-57)" transform="matrix(0.143182, -0.129441, 0.123082, 0.136149, 140.279131, 239.797458)" style=""/>
  <path d="M 277.934 205.293 C 277.934 213.606 287.396 218.8 294.966 214.644 C 298.48 212.716 300.644 209.151 300.644 205.293 C 300.644 199.33 295.559 196.384 289.289 196.384 C 283.018 196.384 277.934 199.33 277.934 205.293 Z" opacity="0.1" style="" transform="matrix(0.741807, -0.670613, 0.670613, 0.741807, -63.618566, 247.252125)"/>
  <path d="M 279.209 205.297 C 279.209 212.673 287.607 217.284 294.325 213.596 C 297.443 211.884 299.363 208.721 299.363 205.297 C 299.363 200.004 294.85 197.603 289.286 197.603 C 283.721 197.603 279.209 200.004 279.209 205.297 Z" style="" fill="#6c63ff" transform="matrix(0.741807, -0.670613, 0.670613, 0.741807, -63.62135, 247.250889)"/>
  <circle cx="517.23" cy="248.39" r="10.92" fill="url(#f75c1103-dbdd-40e9-8416-4e642e18aa3d-58)" transform="matrix(0.143182, -0.129441, 0.123082, 0.136149, 140.279131, 239.797458)" style=""/>
  <circle cx="513.4" cy="208.91" r="8.74" fill="#6c63ff" transform="matrix(0.143182, -0.129441, 0.123082, 0.136149, 140.279131, 239.797458)" style=""/>
  <circle cx="516.64" cy="248.09" r="8.74" fill="#6c63ff" transform="matrix(0.143182, -0.129441, 0.123082, 0.136149, 140.279131, 239.797458)" style=""/>
  <circle cx="513.55" cy="283.69" r="10.92" fill="url(#ec36dd4b-0cc3-4d86-81db-93869b0f2b53-59)" transform="matrix(0.143182, -0.129441, 0.123082, 0.136149, 140.279131, 239.797458)" style=""/>
  <circle cx="513.4" cy="283.39" r="8.74" fill="#6c63ff" transform="matrix(0.143182, -0.129441, 0.123082, 0.136149, 140.279131, 239.797458)" style=""/>
  <ellipse cx="108.742" cy="217.21" rx="1.544" ry="2.004" fill="url(#a08c9c89-6c7b-4448-9345-21cfa6153722-60)" style="" transform="matrix(0.741807, -0.670613, 0.670613, 0.741807, 8.987815, 128.587206)"/>
  <ellipse cx="108.701" cy="217.096" rx="1.237" ry="1.604" fill="#6c63ff" style="" transform="matrix(0.741807, -0.670613, 0.670613, 0.741807, 9.041406, 128.617708)"/>
  <ellipse cx="108.742" cy="231.368" rx="1.544" ry="2.004" fill="url(#f46b9fb5-5ad5-4ca4-9cd1-b2bf013e2a18-61)" style="" transform="matrix(0.741807, -0.670613, 0.670613, 0.741807, 4.110015, 123.191584)"/>
  <ellipse cx="108.701" cy="231.251" rx="1.237" ry="1.604" fill="#6c63ff" style="" transform="matrix(0.741807, -0.670613, 0.670613, 0.741807, 4.164646, 123.223223)"/>
  <ellipse cx="92.268" cy="237.475" rx="0.762" ry="2.004" fill="url(#fc3266a2-4bdb-4538-8728-bd62083ffd21-62)" style="" transform="matrix(0.741807, -0.670613, 0.670613, 0.741807, 7.75175, 115.669863)"/>
  <ellipse cx="92.246" cy="237.358" rx="0.612" ry="1.604" fill="#6c63ff" style="" transform="matrix(0.741807, -0.670613, 0.670613, 0.741807, 7.799731, 115.707537)"/>
  <ellipse cx="87.98" cy="255.238" rx="0.762" ry="2.004" fill="url(#fa09a408-e8f2-48b5-9115-b1d0155c2f4f-63)" style="" transform="matrix(0.741807, -0.670613, 0.670613, 0.741807, 3.127486, 107.548319)"/>
  <ellipse cx="87.962" cy="255.125" rx="0.612" ry="1.604" fill="#6c63ff" style="" transform="matrix(0.741807, -0.670613, 0.670613, 0.741807, 3.172707, 107.585718)"/>
  <ellipse cx="80.209" cy="313.807" rx="0.762" ry="2.004" fill="url(#fca221e4-dacf-4335-8ab4-56b46fb39daf-64)" style="" transform="matrix(0.741807, -0.670613, 0.670613, 0.741807, -14.340721, 82.777307)"/>
  <ellipse cx="80.191" cy="313.69" rx="0.612" ry="1.604" fill="#6c63ff" style="" transform="matrix(0.741807, -0.670613, 0.670613, 0.741807, -14.294148, 82.81624)"/>
  <ellipse cx="85.033" cy="339.621" rx="0.762" ry="2.004" fill="url(#f2997733-82f7-43b3-b4a2-9aeda5f60e4b-65)" style="" transform="matrix(0.741807, -0.670613, 0.670613, 0.741807, -24.916876, 74.460595)"/>
  <ellipse cx="85.014" cy="339.504" rx="0.612" ry="1.604" fill="#6c63ff" style="" transform="matrix(0.741807, -0.670613, 0.670613, 0.741807, -24.86991, 74.499177)"/>
  <ellipse cx="96.552" cy="365.71" rx="0.762" ry="2.004" fill="url(#ec2ecb09-d4ef-422b-ae79-01558496b342-66)" style="" transform="matrix(0.741807, -0.670613, 0.670613, 0.741807, -37.922787, 68.150033)"/>
  <ellipse cx="96.534" cy="365.597" rx="0.612" ry="1.604" fill="#6c63ff" style="" transform="matrix(0.741807, -0.670613, 0.670613, 0.741807, -37.87756, 68.187425)"/>
  <ellipse cx="240.438" cy="313.807" rx="0.762" ry="2.004" fill="url(#af02bd59-7446-488a-b8fc-bdc2c13ac0e6-67)" style="" transform="matrix(0.741807, -0.670613, 0.670613, 0.741807, -70.225152, 133.298357)"/>
  <ellipse cx="240.456" cy="313.69" rx="0.612" ry="1.604" fill="#6c63ff" style="" transform="matrix(0.741807, -0.670613, 0.670613, 0.741807, -70.191094, 133.348604)"/>
  <ellipse cx="235.615" cy="339.621" rx="0.762" ry="2.004" fill="url(#b5addac3-d630-47be-b564-26fd2b071e44-68)" style="" transform="matrix(0.741807, -0.670613, 0.670613, 0.741807, -77.436586, 121.939882)"/>
  <ellipse cx="235.633" cy="339.504" rx="0.612" ry="1.604" fill="#6c63ff" style="" transform="matrix(0.741807, -0.670613, 0.670613, 0.741807, -77.402543, 121.990106)"/>
  <ellipse cx="224.095" cy="365.71" rx="0.762" ry="2.004" fill="url(#e2b10429-1806-4563-a497-43955a3c409a-69)" style="" transform="matrix(0.741807, -0.670613, 0.670613, 0.741807, -82.406984, 108.364946)"/>
  <ellipse cx="224.113" cy="365.597" rx="0.612" ry="1.604" fill="#6c63ff" style="" transform="matrix(0.741807, -0.670613, 0.670613, 0.741807, -82.374353, 108.413736)"/>
  <ellipse cx="211.906" cy="217.21" rx="1.544" ry="2.004" fill="url(#b449913b-a3bd-4b7e-b74e-3a16dce6057b-70)" style="" transform="matrix(0.741807, -0.670613, 0.670613, 0.741807, -26.993548, 161.11542)"/>
  <ellipse cx="211.946" cy="217.096" rx="1.237" ry="1.604" fill="#6c63ff" style="" transform="matrix(0.741807, -0.670613, 0.670613, 0.741807, -26.968218, 161.171465)"/>
  <ellipse cx="211.906" cy="231.368" rx="1.544" ry="2.004" fill="url(#bce6c7e1-aabc-4c98-abcc-29250c8d974d-71)" style="" transform="matrix(0.741807, -0.670613, 0.670613, 0.741807, -31.871357, 155.719759)"/>
  <ellipse cx="211.946" cy="231.251" rx="1.237" ry="1.604" fill="#6c63ff" style="" transform="matrix(0.741807, -0.670613, 0.670613, 0.741807, -31.844994, 155.77698)"/>
  <ellipse cx="228.379" cy="237.475" rx="0.762" ry="2.004" fill="url(#b10cd907-f59d-4772-b6f8-ffb2d28c9e39-72)" style="" transform="matrix(0.741807, -0.670613, 0.670613, 0.741807, -39.720772, 158.586367)"/>
  <ellipse cx="228.401" cy="237.358" rx="0.612" ry="1.604" fill="#6c63ff" style="" transform="matrix(0.741807, -0.670613, 0.670613, 0.741807, -39.688134, 158.637881)"/>
  <ellipse cx="232.667" cy="255.238" rx="0.762" ry="2.004" fill="url(#a28a0d57-7e7e-49a6-bfc5-af83b54b7f1a-73)" style="" transform="matrix(0.741807, -0.670613, 0.670613, 0.741807, -47.336179, 153.168902)"/>
  <ellipse cx="232.686" cy="255.125" rx="0.612" ry="1.604" fill="#6c63ff" style="" transform="matrix(0.741807, -0.670613, 0.670613, 0.741807, -47.303879, 153.217959)"/>
  <circle cx="558.41" cy="294.72" r="10.92" fill="url(#b67486d2-28a2-4f82-9a1f-909f0b144cbf-74)" transform="matrix(0.143182, -0.129441, 0.123082, 0.136149, 140.279131, 239.797458)" style=""/>
  <circle cx="653.27" cy="285.89" r="10.92" fill="url(#f76811de-0b5d-4efb-a2df-9fe3ccd8d456-75)" transform="matrix(0.143182, -0.129441, 0.123082, 0.136149, 140.279131, 239.797458)" style=""/>
  <circle cx="653.27" cy="217.5" r="10.92" fill="url(#b7b52b38-6a72-4f89-b212-7aab327f5f79-76)" transform="matrix(0.143182, -0.129441, 0.123082, 0.136149, 140.279131, 239.797458)" style=""/>
  <circle cx="610.62" cy="294.72" r="10.92" fill="url(#f0303255-e146-4596-9c51-c51b560eb4fb-77)" transform="matrix(0.143182, -0.129441, 0.123082, 0.136149, 140.279131, 239.797458)" style=""/>
  <circle cx="653.27" cy="252.07" r="10.92" fill="url(#b13687c7-cd46-4f44-ab29-b845786a55b0-78)" transform="matrix(0.143182, -0.129441, 0.123082, 0.136149, 140.279131, 239.797458)" style=""/>
  <circle cx="558.41" cy="294.72" r="8.74" fill="#6c63ff" transform="matrix(0.143182, -0.129441, 0.123082, 0.136149, 140.279131, 239.797458)" style=""/>
  <circle cx="610.87" cy="294.72" r="8.74" fill="#6c63ff" transform="matrix(0.143182, -0.129441, 0.123082, 0.136149, 140.279131, 239.797458)" style=""/>
  <circle cx="653.29" cy="285.98" r="8.74" fill="#6c63ff" transform="matrix(0.143182, -0.129441, 0.123082, 0.136149, 140.279131, 239.797458)" style=""/>
  <circle cx="653.29" cy="252.3" r="8.74" fill="#6c63ff" transform="matrix(0.143182, -0.129441, 0.123082, 0.136149, 140.279131, 239.797458)" style=""/>
  <circle cx="653.29" cy="217.65" r="8.74" fill="#6c63ff" transform="matrix(0.143182, -0.129441, 0.123082, 0.136149, 140.279131, 239.797458)" style=""/>
  <polygon points="253.096 206.923 266.254 209.16 278.677 208.043 266.547 214.753 253.096 206.923" opacity="0.1" style="" transform="matrix(0.741807, -0.670613, 0.670613, 0.741807, -72.74077, 232.743869)"/>
  <polygon points="252.913 206.721 266.072 208.958 278.494 207.838 266.365 214.549 252.913 206.721" fill="#ee1559" style="" transform="matrix(0.741807, -0.670613, 0.670613, 0.741807, -72.651879, 232.568729)"/>
  <circle cx="551.26" cy="647.79" r="11.66" fill="url(#e4017582-7cc3-4ac4-be99-2b4943951817-79)" transform="matrix(0.143182, -0.129441, 0.123082, 0.136149, 140.279131, 239.797458)" style=""/>
  <circle cx="479.24" cy="650.56" r="11.43" fill="url(#ad01df78-22d8-4ee7-8853-2fc7c66e3b71-80)" transform="matrix(0.143182, -0.129441, 0.123082, 0.136149, 140.279131, 239.797458)" style=""/>
  <circle cx="507.5" cy="647.79" r="11.43" fill="url(#e5a5dc48-fbd4-48c2-9cbf-92bd2991bcf4-81)" transform="matrix(0.143182, -0.129441, 0.123082, 0.136149, 140.279131, 239.797458)" style=""/>
  <circle cx="547.94" cy="692.66" r="11.66" fill="url(#e602db05-3e75-4048-afe7-67e8fbe7b2d8-82)" transform="matrix(0.143182, -0.129441, 0.123082, 0.136149, 140.279131, 239.797458)" style=""/>
  <circle cx="614.98" cy="692.66" r="11.43" fill="url(#a676eb09-aa41-45f8-978f-be6c5f3689b5-83)" transform="matrix(0.143182, -0.129441, 0.123082, 0.136149, 140.279131, 239.797458)" style=""/>
  <circle cx="614.98" cy="724.8" r="12.53" fill="url(#a937236e-0e06-4591-b47e-3dd295b2bcb0-84)" transform="matrix(0.143182, -0.129441, 0.123082, 0.136149, 140.279131, 239.797458)" style=""/>
  <circle cx="551.26" cy="724.8" r="12.21" fill="url(#b39e97d1-ca86-432b-bd97-52352e7b3773-85)" transform="matrix(0.143182, -0.129441, 0.123082, 0.136149, 140.279131, 239.797458)" style=""/>
  <circle cx="614.98" cy="647.79" r="11.43" fill="url(#fc474cf9-3058-4652-a3eb-1b903cb1f5bb-86)" transform="matrix(0.143182, -0.129441, 0.123082, 0.136149, 140.279131, 239.797458)" style=""/>
  <circle cx="659.3" cy="650.56" r="11.66" fill="url(#ad9ade79-bd55-4960-b46c-c177ee8625dc-87)" transform="matrix(0.143182, -0.129441, 0.123082, 0.136149, 140.279131, 239.797458)" style=""/>
  <circle cx="687.55" cy="664.41" r="11.98" fill="url(#e263ef8a-1c9f-4b4d-bc1b-0aff5b6a28d8-88)" transform="matrix(0.143182, -0.129441, 0.123082, 0.136149, 140.279131, 239.797458)" style=""/>
  <circle cx="551.26" cy="647.79" r="10.2" fill="#6c63ff" transform="matrix(0.143182, -0.129441, 0.123082, 0.136149, 140.279131, 239.797458)" style=""/>
  <circle cx="507.34" cy="647.79" r="10.2" fill="#6c63ff" transform="matrix(0.143182, -0.129441, 0.123082, 0.136149, 140.279131, 239.797458)" style=""/>
  <circle cx="479.49" cy="650.53" r="10.2" fill="#6c63ff" transform="matrix(0.143182, -0.129441, 0.123082, 0.136149, 140.279131, 239.797458)" style=""/>
  <circle cx="615.19" cy="647.79" r="10.2" fill="#6c63ff" transform="matrix(0.143182, -0.129441, 0.123082, 0.136149, 140.279131, 239.797458)" style=""/>
  <circle cx="659.12" cy="650.53" r="10.2" fill="#6c63ff" transform="matrix(0.143182, -0.129441, 0.123082, 0.136149, 140.279131, 239.797458)" style=""/>
  <circle cx="687.35" cy="664.65" r="10.2" fill="#6c63ff" transform="matrix(0.143182, -0.129441, 0.123082, 0.136149, 140.279131, 239.797458)" style=""/>
  <circle cx="615.19" cy="692.5" r="10.2" fill="#6c63ff" transform="matrix(0.143182, -0.129441, 0.123082, 0.136149, 140.279131, 239.797458)" style=""/>
  <circle cx="615.19" cy="724.66" r="10.2" fill="#6c63ff" transform="matrix(0.143182, -0.129441, 0.123082, 0.136149, 140.279131, 239.797458)" style=""/>
  <circle cx="547.73" cy="692.5" r="10.2" fill="#6c63ff" transform="matrix(0.143182, -0.129441, 0.123082, 0.136149, 140.279131, 239.797458)" style=""/>
  <circle cx="551.26" cy="724.66" r="10.2" fill="#6c63ff" transform="matrix(0.143182, -0.129441, 0.123082, 0.136149, 140.279131, 239.797458)" style=""/>
  <path d="M 267.509 260.324 L 271.293 263.218 C 271.293 263.218 275.325 250.004 276.311 249.453 C 276.311 249.452 267.756 258.76 267.509 260.324 Z" opacity="0.1" style="" transform="matrix(0.741807, -0.670613, 0.670613, 0.741807, -101.696764, 248.53043)"/>
  <path d="M 267.314 260.317 L 271.099 263.211 C 271.099 263.211 275.129 249.996 276.118 249.446 C 276.115 249.444 267.561 258.753 267.314 260.317 Z" fill="#ee1559" style="" transform="matrix(0.741807, -0.670613, 0.670613, 0.741807, -101.742166, 248.398533)"/>
  <path d="M 314.63 224.412 L 310.847 227.306 C 310.847 227.306 306.816 214.091 305.828 213.54 C 305.828 213.539 314.387 222.848 314.63 224.412 Z" opacity="0.1" style="" transform="matrix(0.741807, -0.670613, 0.670613, 0.741807, -67.719674, 264.955326)"/>
  <path d="M 314.556 224.119 L 310.77 227.013 C 310.77 227.013 306.741 213.798 305.752 213.247 C 305.754 213.244 314.308 222.552 314.556 224.119 Z" fill="#ee1559" style="" transform="matrix(0.741807, -0.670613, 0.670613, 0.741807, -67.54255, 264.82938)"/>
</svg>