<?xml version="1.0" encoding="utf-8"?>
<svg viewBox="0 0 500 500" xmlns="http://www.w3.org/2000/svg" xmlns:bx="https://boxy-svg.com">
  <path d="M 256.734 560.994 C 138.192 560.994 45.334 543.87 45.334 522.01 C 45.334 500.149 138.192 483.025 256.734 483.025 C 375.277 483.025 468.135 500.149 468.135 522.01 C 468.135 543.87 375.277 560.994 256.734 560.994 Z M 256.734 485.025 C 143.173 485.025 47.233 501.963 47.233 522.01 C 47.233 542.058 143.173 558.995 256.734 558.995 C 370.295 558.995 466.234 542.058 466.234 522.01 C 466.234 501.963 370.295 485.025 256.734 485.025 Z" fill="#f2f2f2"/>
  <path d="M 501.78 225.198 C 501.793 245.181 499.927 265.116 496.212 284.713 C 495.643 287.732 495.025 290.738 494.36 293.73 C 493.97 295.529 493.561 297.322 493.135 299.108 C 492.858 300.268 492.574 301.427 492.279 302.587 C 470.886 387.457 415.609 458.424 340.717 497.169 C 328.568 503.462 316.008 508.83 303.13 513.232 C 301.173 513.902 299.206 514.552 297.23 515.181 L 297.22 515.181 C 270.198 523.759 242.122 528.104 213.895 528.077 C 209.848 528.077 205.857 527.979 201.923 527.786 C 191.276 527.297 180.671 526.058 170.18 524.077 C 41.259 499.568 -21.894 366.001 -73.989 225.198 C -75.282 221.709 -76.552 218.244 -77.799 214.802 C -78.104 213.952 -78.407 213.103 -78.712 212.254 C -217.277 -173.233 -67.007 -270.784 213.895 -77.681 C 346.997 13.812 501.78 57.925 501.78 225.198 Z" fill="#f2f2f2"/>
  <path d="M 302.797 406.074 L 301.48 404.633 C 301.687 404.423 322.246 383.237 330.075 343.649 C 337.307 307.086 334.852 246.886 282.085 167.726 C 241.615 107.014 225.238 53.973 233.409 10.073 C 240.587 -28.495 265 -45.436 265.246 -45.603 L 266.276 -43.923 C 266.037 -43.761 242.264 -27.217 235.262 10.519 C 227.223 53.853 243.499 106.359 283.641 166.578 C 307.116 201.796 322.743 236.284 330.089 269.084 C 335.975 295.37 336.588 320.637 331.911 344.184 C 323.935 384.33 303.008 405.86 302.797 406.074 Z" fill="#f2f2f2"/>
  <path d="M 101.341 499.036 L 100.024 497.596 C 100.286 497.333 126.205 470.629 136.082 420.731 C 145.205 374.652 142.124 298.788 75.641 199.05 C 47.863 157.378 28.919 118.005 19.337 82.027 C 11.507 52.628 9.85 25.3 14.41 0.8 C 23.425 -47.641 54.069 -68.907 54.377 -69.116 L 55.406 -67.436 C 55.104 -67.231 25.101 -46.364 16.263 1.246 C 6.122 55.868 26.624 122.033 77.197 197.902 C 106.729 242.206 126.386 285.588 135.626 326.845 C 143.028 359.895 143.799 391.663 137.918 421.266 C 127.894 471.723 101.605 498.768 101.341 499.036 Z" fill="#fff"/>
  <circle cx="199.118" cy="-15.49" r="88.201" fill="#fff" transform="matrix(0.833916, 0, 0, 0.877347, -128.49805, -21.341523)"/>
  <path d="M 54.892 37.16 C -22.255 37.16 -70.472 -50.703 -31.898 -120.993 C 6.674 -191.283 103.107 -191.283 141.68 -120.993 C 150.477 -104.965 155.107 -86.782 155.107 -68.275 C 155.045 -10.073 110.214 37.094 54.892 37.16 Z M 54.892 -171.712 C -20.792 -171.712 -68.094 -85.514 -30.253 -16.557 C 7.589 52.401 102.194 52.401 140.035 -16.557 C 148.665 -32.281 153.207 -50.119 153.207 -68.275 C 153.145 -125.375 109.164 -171.647 54.892 -171.712 Z" fill="#fff"/>
  <circle cx="287.32" cy="184.577" r="73.143" fill="#fff" transform="matrix(0.833916, 0, 0, 0.877347, -128.49805, -21.341523)"/>
  <circle cx="250.031" cy="438.424" r="73.143" fill="#fff" transform="matrix(0.833916, 0, 0, 0.877347, -128.49805, -21.341523)"/>
  <path d="M 493.135 299.108 C 492.497 295.65 491.841 292.237 491.167 288.872 C 491.162 288.872 491.158 288.868 491.158 288.862 C 482.626 246.269 471.129 211.344 457.514 182.854 L 421.438 169.8 L 448.63 165.712 C 437.638 146.089 425.524 130.015 412.65 116.97 L 346.388 124.938 L 396.403 102.386 C 304.489 29.647 183.986 88.072 151.15 106.435 C 146.646 108.945 143.795 110.714 142.884 111.283 C 142.874 111.283 142.874 111.283 142.865 111.294 C 142.665 111.423 142.57 111.483 142.57 111.483 L 161.211 121.668 L 161.221 121.668 L 492.279 302.587 Z" fill="#ff63a6"/>
  <path d="M 493.135 299.108 C 493.561 297.319 493.97 295.526 494.359 293.73 C 493.39 292.241 492.326 290.612 491.167 288.872 C 491.162 288.872 491.158 288.868 491.158 288.862 C 452.982 231.435 313.049 43.79 151.862 107.485 L 151.853 107.485 C 148.869 108.664 145.88 109.931 142.884 111.283 C 142.874 111.283 142.874 111.283 142.865 111.294 C 140.137 112.522 137.407 113.829 134.674 115.211 C 133.287 115.901 131.909 116.622 130.523 117.351 C 129.316 117.991 128.118 118.64 126.912 119.311 C 126.912 119.311 120.052 121.119 112.366 127.936 C 97.268 141.352 78.969 174.128 103.216 250.658 C 103.216 250.658 124.746 314.062 113.981 343.51 C 103.216 372.939 169.962 406.905 189.316 343.51 C 208.689 280.096 215.158 218.95 215.158 218.95 C 215.158 218.95 237.43 268.32 235.235 317.83 C 234.332 338.122 236.052 358.435 241.249 377.976 C 241.781 380.025 242.361 382.075 242.94 384.154 C 249.943 408.894 260.869 440.721 276.964 471.499 C 284.547 486.164 293.3 500.126 303.13 513.232 C 316.008 508.83 328.568 503.462 340.716 497.169 C 415.609 458.424 470.886 387.457 492.279 302.587 Z" fill="#3f3d56"/>
  <polygon points="133.361 141.957 124.75 67.226 161.343 121.575 133.361 141.957" fill="#3f3d56"/>
  <polygon points="114.598 147.34 105.988 72.61 142.581 126.958 114.598 147.34" fill="#3f3d56"/>
  <polygon points="95.856 216.976 3.919 91.251 97.031 179.216 95.856 216.976" fill="#ff63a6"/>
  <polygon points="127.318 82.115 127.315 82.115 149.916 106.063 135.345 109.986" style="fill: rgb(255, 99, 166);" transform="matrix(0.986796, 0.161968, -0.161965, 0.986796, 17.137856, -21.192318)" bx:origin="0.497 0.445"/>
  <polygon points="107.929 87.601 107.922 87.593 127.365 109.002 119.686 123.451" style="fill: rgb(255, 99, 166);" transform="matrix(0.986796, 0.161968, -0.161965, 0.986796, 18.323973, -17.677798)" bx:origin="0.497 0.445"/>
  <rect x="125.872" y="99.733" width="21.273" height="22.381" fill="#6c63ff" opacity="0.2"/>
  <path d="M 155.326 105.833 L 176.225 99.733 L 176.225 122.114 L 154.952 122.114 L 155.326 105.833 Z" fill="#6c63ff"/>
  <rect x="184.021" y="99.733" width="21.273" height="22.381" fill="#6c63ff" opacity="0.2"/>
  <rect x="213.099" y="99.733" width="21.273" height="22.381" fill="#6c63ff" opacity="0.2"/>
  <rect x="242.17" y="99.733" width="21.273" height="22.381" fill="#6c63ff" opacity="0.2"/>
  <path d="M 271.248 101.897 L 292.522 108.981 L 292.522 122.114 L 271.248 122.114 L 271.248 101.897 Z" fill="#6c63ff"/>
  <path d="M 300.14 111.933 L 311.5 117.05 L 321.6 122.114 L 300.327 122.114 L 300.14 111.933 Z" fill="#6c63ff" opacity="0.2"/>
  <path d="M 110.635 127.687 L 119.189 127.686 L 118.067 150.46 L 96.793 150.46 L 110.635 127.687 Z" fill="#6c63ff" opacity="0.2"/>
  <rect x="125.872" y="128.08" width="21.273" height="22.381" fill="#6c63ff" opacity="0.4"/>
  <rect x="154.952" y="128.08" width="21.273" height="22.381" fill="#6c63ff"/>
  <rect x="184.021" y="128.08" width="21.273" height="22.381" fill="#6c63ff" opacity="0.4"/>
  <rect x="213.099" y="128.08" width="21.273" height="22.381" fill="#6c63ff" opacity="0.2"/>
  <rect x="242.17" y="128.08" width="21.273" height="22.381" fill="#6c63ff" opacity="0.4"/>
  <rect x="271.248" y="128.08" width="21.273" height="22.381" fill="#6c63ff"/>
  <rect x="300.327" y="128.08" width="21.273" height="22.381" fill="#6c63ff" opacity="0.4"/>
  <path d="M 329.397 127.096 L 350.67 140.084 L 350.67 150.46 L 329.397 150.46 L 329.397 127.096 Z" fill="#6c63ff" opacity="0.4"/>
  <path d="M 358.663 145.594 L 361.045 147.758 L 364.785 150.657 L 358.476 150.46 L 358.663 145.594 Z" fill="#6c63ff" opacity="0.2"/>
  <rect x="96.793" y="156.436" width="21.273" height="22.381" fill="#6c63ff" opacity="0.2"/>
  <rect x="125.872" y="156.436" width="21.273" height="22.381" fill="#6c63ff" opacity="0.4"/>
  <rect x="154.952" y="156.436" width="21.273" height="22.381" fill="#6c63ff" opacity="0.4"/>
  <rect x="184.021" y="156.436" width="21.273" height="22.381" fill="#6c63ff"/>
  <rect x="213.099" y="156.436" width="21.273" height="22.381" fill="#6c63ff" opacity="0.2"/>
  <rect x="242.17" y="156.436" width="21.273" height="22.381" fill="#6c63ff" opacity="0.4"/>
  <rect x="271.248" y="156.436" width="21.273" height="22.381" fill="#6c63ff"/>
  <rect x="300.327" y="156.436" width="21.273" height="22.381" fill="#6c63ff" opacity="0.2"/>
  <rect x="329.397" y="156.436" width="21.273" height="22.381" fill="#6c63ff" opacity="0.4"/>
  <rect x="358.476" y="156.436" width="21.273" height="22.381" fill="#6c63ff" opacity="0.2"/>
  <path d="M 387.742 168.834 L 392.369 172.769 L 399.103 179.21 L 387.555 178.817 L 387.742 168.834 Z" fill="#6c63ff"/>
  <rect x="96.793" y="184.783" width="21.273" height="22.381" fill="#6c63ff" opacity="0.2"/>
  <rect x="125.872" y="184.783" width="21.273" height="22.381" fill="#6c63ff" opacity="0.2"/>
  <rect x="154.952" y="184.783" width="21.273" height="22.381" fill="#6c63ff" opacity="0.4"/>
  <rect x="184.021" y="184.783" width="21.273" height="22.381" fill="#6c63ff" opacity="0.4"/>
  <rect x="213.099" y="184.783" width="21.273" height="22.381" fill="#6c63ff"/>
  <rect x="242.17" y="184.783" width="21.273" height="22.381" fill="#6c63ff" opacity="0.2"/>
  <rect x="271.248" y="184.783" width="21.273" height="22.381" fill="#6c63ff" opacity="0.4"/>
  <rect x="300.327" y="184.783" width="21.273" height="22.381" fill="#6c63ff" opacity="0.4"/>
  <rect x="329.397" y="184.783" width="21.273" height="22.381" fill="#6c63ff" opacity="0.4"/>
  <rect x="358.476" y="184.783" width="21.273" height="22.381" fill="#6c63ff" opacity="0.4"/>
  <rect x="387.555" y="184.783" width="21.273" height="22.381" fill="#6c63ff" opacity="0.2"/>
  <path d="M 416.626 196.59 L 420.317 200.328 L 426.489 206.966 L 416.626 207.164 L 416.626 196.59 Z" fill="#6c63ff" opacity="0.2"/>
  <rect x="96.793" y="213.138" width="21.273" height="22.381" fill="#6c63ff" opacity="0.2"/>
  <rect x="125.872" y="213.138" width="21.273" height="22.381" fill="#6c63ff" opacity="0.2"/>
  <rect x="154.952" y="213.138" width="21.273" height="22.381" fill="#6c63ff" opacity="0.4"/>
  <rect x="184.021" y="213.138" width="21.273" height="22.381" fill="#6c63ff"/>
  <path d="M 213.099 213.138 L 234.373 213.138 L 234.373 235.52 L 221.77 235.945 L 213.099 213.138 Z" fill="#6c63ff" opacity="0.2"/>
  <rect x="242.17" y="213.138" width="21.273" height="22.381" fill="#6c63ff"/>
  <rect x="271.248" y="213.138" width="21.273" height="22.381" fill="#6c63ff"/>
  <rect x="300.327" y="213.138" width="21.273" height="22.381" fill="#6c63ff"/>
  <rect x="329.397" y="213.138" width="21.273" height="22.381" fill="#6c63ff" opacity="0.2"/>
  <rect x="358.476" y="213.138" width="21.273" height="22.381" fill="#6c63ff"/>
  <rect x="387.555" y="213.138" width="21.273" height="22.381" fill="#6c63ff" opacity="0.2"/>
  <path d="M 416.626 213.138 L 437.899 213.138 L 437.899 235.52 L 416.626 235.52 L 416.626 213.138 Z" fill="#6c63ff" opacity="0.2"/>
  <path d="M 445.704 228.291 L 448.834 231.44 L 451.827 235.716 L 445.704 235.52 L 445.704 228.291 Z" fill="#6c63ff" opacity="0.2"/>
  <path d="M 100.348 241.289 L 118.067 241.485 L 118.067 263.867 L 107.828 264.26 L 100.348 241.289 Z" fill="#6c63ff" opacity="0.2"/>
  <rect x="125.872" y="241.485" width="21.273" height="22.381" fill="#6c63ff" opacity="0.2"/>
  <rect x="154.952" y="241.485" width="21.273" height="22.381" fill="#6c63ff" opacity="0.2"/>
  <rect x="184.021" y="241.485" width="21.273" height="22.381" fill="#6c63ff"/>
  <path d="M 223.988 241.061 L 234.373 241.485 L 234.373 263.867 L 230.037 264.715 L 223.988 241.061 Z" fill="#6c63ff" opacity="0.2"/>
  <rect x="242.17" y="241.485" width="21.273" height="22.381" fill="#6c63ff"/>
  <rect x="271.248" y="241.485" width="21.273" height="22.381" fill="#6c63ff"/>
  <rect x="300.327" y="241.485" width="21.273" height="22.381" fill="#6c63ff" opacity="0.2"/>
  <rect x="329.397" y="241.485" width="21.273" height="22.381" fill="#6c63ff" opacity="0.2"/>
  <rect x="358.476" y="241.485" width="21.273" height="22.381" fill="#6c63ff" opacity="0.2"/>
  <rect x="387.555" y="241.485" width="21.273" height="22.381" fill="#6c63ff" opacity="0.2"/>
  <rect x="416.626" y="241.485" width="21.273" height="22.381" fill="#6c63ff" opacity="0.2"/>
  <path d="M 445.704 241.485 L 457.252 241.485 L 473.898 263.67 L 445.704 263.867 L 445.704 241.485 Z" fill="#6c63ff" opacity="0.2"/>
  <path d="M 108.764 270.235 L 118.067 269.841 L 118.067 292.222 L 114.189 291.829 L 108.764 270.235 Z" fill="#6c63ff" opacity="0.2"/>
  <rect x="125.872" y="269.841" width="21.273" height="22.381" fill="#6c63ff" opacity="0.2"/>
  <rect x="154.952" y="269.841" width="21.273" height="22.381" fill="#6c63ff" opacity="0.2"/>
  <rect x="184.021" y="269.841" width="21.273" height="22.381" fill="#6c63ff" opacity="0.2"/>
  <rect x="242.17" y="269.841" width="21.273" height="22.381" fill="#6c63ff" opacity="0.2"/>
  <rect x="271.248" y="269.841" width="21.273" height="22.381" fill="#6c63ff" opacity="0.2"/>
  <rect x="300.327" y="269.841" width="21.273" height="22.381" fill="#6c63ff" opacity="0.2"/>
  <rect x="329.397" y="269.841" width="21.273" height="22.381" fill="#6c63ff"/>
  <rect x="358.476" y="269.841" width="21.273" height="22.381" fill="#6c63ff" opacity="0.2"/>
  <rect x="387.555" y="269.841" width="21.273" height="22.381" fill="#6c63ff" opacity="0.2"/>
  <rect x="416.626" y="269.841" width="21.273" height="22.381" fill="#6c63ff" opacity="0.2"/>
  <rect x="445.704" y="269.841" width="21.273" height="22.381" fill="#6c63ff" opacity="0.2"/>
  <path d="M 474.774 269.841 L 477.86 269.841 L 493.15 292.222 L 474.774 292.222 L 474.774 269.841 Z" fill="#6c63ff" opacity="0.2" style="stroke-linecap: round; stroke-linejoin: round;"/>
  <path d="M 115.347 301.522 L 118.29 301.522 L 118.29 323.903 L 117.404 323.903 L 115.347 301.522 Z" fill="#6c63ff" opacity="0.2"/>
  <rect x="126.095" y="301.522" width="21.273" height="22.381" fill="#6c63ff" opacity="0.2"/>
  <rect x="155.174" y="301.522" width="21.273" height="22.381" fill="#6c63ff"/>
  <path d="M 184.245 301.522 L 200.842 301.522 L 194.669 323.903 L 184.245 323.903 L 184.245 301.522 Z" fill="#6c63ff" opacity="0.2"/>
  <rect x="242.394" y="301.522" width="21.273" height="22.381" fill="#6c63ff" opacity="0.2"/>
  <rect x="271.472" y="301.522" width="21.273" height="22.381" fill="#6c63ff"/>
  <rect x="300.551" y="301.522" width="21.273" height="22.381" fill="#6c63ff" opacity="0.2"/>
  <rect x="329.62" y="301.522" width="21.273" height="22.381" fill="#6c63ff" opacity="0.2"/>
  <rect x="358.7" y="301.522" width="21.273" height="22.381" fill="#6c63ff" opacity="0.2"/>
  <rect x="387.778" y="301.522" width="21.273" height="22.381" fill="#6c63ff" opacity="0.2"/>
  <rect x="416.848" y="301.522" width="21.273" height="22.381" fill="#6c63ff" opacity="0.2"/>
  <rect x="445.927" y="301.522" width="21.273" height="22.381" fill="#6c63ff" opacity="0.2"/>
  <path d="M 474.997 301.522 L 492.408 301.522 L 486.292 323.227 L 474.997 323.903 L 474.997 301.522 Z" fill="#6c63ff"/>
  <path d="M 116.095 329.869 L 118.29 329.869 L 118.29 352.251 L 112.729 352.447 L 116.095 329.869 Z" fill="#6c63ff" opacity="0.2"/>
  <rect x="126.095" y="329.869" width="21.273" height="22.381" fill="#6c63ff" opacity="0.4"/>
  <rect x="155.174" y="329.869" width="21.273" height="22.381" fill="#6c63ff"/>
  <path d="M 184.245 329.869 L 193.172 329.673 L 186.252 351.857 L 184.245 352.251 L 184.245 329.869 Z" fill="#6c63ff" opacity="0.4"/>
  <rect x="242.394" y="329.869" width="21.273" height="22.381" fill="#6c63ff" opacity="0.4"/>
  <rect x="271.472" y="329.869" width="21.273" height="22.381" fill="#6c63ff"/>
  <rect x="300.551" y="329.869" width="21.273" height="22.381" fill="#6c63ff" opacity="0.4"/>
  <rect x="329.62" y="329.869" width="21.273" height="22.381" fill="#6c63ff" opacity="0.4"/>
  <rect x="358.7" y="329.869" width="21.273" height="22.381" fill="#6c63ff" opacity="0.2"/>
  <rect x="387.778" y="329.869" width="21.273" height="22.381" fill="#6c63ff" opacity="0.4"/>
  <rect x="416.848" y="329.869" width="21.273" height="22.381" fill="#6c63ff" opacity="0.4"/>
  <rect x="445.927" y="329.869" width="21.273" height="22.381" fill="#6c63ff" opacity="0.2"/>
  <path d="M 474.997 329.869 L 483.717 330.208 L 475.026 352.42 L 474.997 352.251 L 474.997 329.869 Z" fill="#6c63ff" opacity="0.2"/>
  <path d="M 126.095 358.226 L 147.368 358.226 L 147.368 380.606 L 125.909 372.735 L 126.095 358.226 Z" fill="#6c63ff" opacity="0.4"/>
  <path d="M 155.174 358.226 L 176.448 358.226 L 176.448 368.209 L 155.174 380.606 L 155.174 358.226 Z" fill="#6c63ff" opacity="0.4"/>
  <rect x="242.394" y="358.226" width="21.273" height="22.381" fill="#6c63ff" opacity="0.4"/>
  <rect x="271.472" y="358.226" width="21.273" height="22.381" fill="#6c63ff"/>
  <rect x="300.551" y="358.226" width="21.273" height="22.381" fill="#6c63ff" opacity="0.2"/>
  <rect x="329.62" y="358.226" width="21.273" height="22.381" fill="#6c63ff" opacity="0.4"/>
  <rect x="358.7" y="358.226" width="21.273" height="22.381" fill="#6c63ff" opacity="0.2"/>
  <rect x="387.778" y="358.226" width="21.273" height="22.381" fill="#6c63ff"/>
  <rect x="416.848" y="358.226" width="21.273" height="22.381" fill="#6c63ff" opacity="0.2"/>
  <path d="M 472.672 358.226 L 461.406 380.268 L 445.927 380.606 L 445.927 358.226 L 472.672 358.226 Z" fill="#6c63ff" opacity="0.7" style=""/>
  <path d="M 467.617 357.787 L 467.617 381.045 L 445.51 381.045 L 445.51 357.787 Z M 446.344 380.168 L 466.784 380.168 L 466.784 358.664 L 446.344 358.664 Z" style="fill: none;"/>
  <path d="M 467.617 357.787 L 467.617 381.045 L 445.51 381.045 L 445.51 357.787 Z M 446.344 380.168 L 466.784 380.168 L 466.784 358.664 L 446.344 358.664 Z" style="fill: none;"/>
  <path d="M 467.617 357.787 L 467.617 381.045 L 445.51 381.045 L 445.51 357.787 Z M 446.344 380.168 L 466.784 380.168 L 466.784 358.664 L 446.344 358.664 Z" style="fill: none;"/>
  <path d="M 467.617 357.787 L 467.617 381.045 L 445.51 381.045 L 445.51 357.787 Z M 446.344 380.168 L 466.784 380.168 L 466.784 358.664 L 446.344 358.664 Z" style="fill: none;"/>
  <path d="M 467.617 357.787 L 467.617 381.045 L 445.51 381.045 L 445.51 357.787 Z M 446.344 380.168 L 466.784 380.168 L 466.784 358.664 L 446.344 358.664 Z" style="fill: none;"/>
  <path d="M 467.617 357.787 L 467.617 381.045 L 445.51 381.045 L 445.51 357.787 Z M 446.344 380.168 L 466.784 380.168 L 466.784 358.664 L 446.344 358.664 Z" style="fill: none;"/>
  <path d="M 244.006 386.572 L 263.666 386.572 L 263.666 408.953 L 250.66 408.742 L 244.006 386.572 Z" fill="#6c63ff" opacity="0.2"/>
  <rect x="271.472" y="386.572" width="21.273" height="22.381" fill="#6c63ff" opacity="0.4"/>
  <rect x="300.551" y="386.572" width="21.273" height="22.381" fill="#6c63ff" opacity="0.4"/>
  <rect x="329.62" y="386.572" width="21.273" height="22.381" fill="#6c63ff" opacity="0.4"/>
  <rect x="358.7" y="386.572" width="21.273" height="22.381" fill="#6c63ff" opacity="0.4"/>
  <rect x="387.778" y="386.572" width="21.273" height="22.381" fill="#6c63ff" opacity="0.2"/>
  <rect x="416.848" y="386.572" width="21.273" height="22.381" fill="#6c63ff" opacity="0.2"/>
  <path d="M 445.927 386.572 L 457.222 386.742 L 445.473 405.059 L 445.444 405.398 L 445.927 386.572 Z" fill="#6c63ff" opacity="0.2"/>
  <path d="M 252.475 414.293 L 263.666 414.929 L 263.666 437.31 L 260.943 437.097 L 252.475 414.293 Z" fill="#6c63ff"/>
  <rect x="271.472" y="414.929" width="21.273" height="22.381" fill="#6c63ff"/>
  <rect x="300.551" y="414.929" width="21.273" height="22.381" fill="#6c63ff"/>
  <rect x="329.62" y="414.929" width="21.273" height="22.381" fill="#6c63ff" opacity="0.2"/>
  <rect x="358.7" y="414.929" width="21.273" height="22.381" fill="#6c63ff"/>
  <rect x="387.778" y="414.929" width="21.273" height="22.381" fill="#6c63ff" opacity="0.2"/>
  <path d="M 416.848 414.929 L 438.122 414.929 L 428.118 427.51 L 417.021 439.487 L 416.848 414.929 Z" fill="#6c63ff" opacity="0.2"/>
  <rect x="271.472" y="443.276" width="21.273" height="22.381" fill="#6c63ff"/>
  <rect x="300.551" y="443.276" width="21.273" height="22.381" fill="#6c63ff" opacity="0.2"/>
  <rect x="329.62" y="443.276" width="21.273" height="22.381" fill="#6c63ff" opacity="0.2"/>
  <rect x="358.7" y="443.276" width="21.273" height="22.381" fill="#6c63ff" opacity="0.2"/>
  <path d="M 387.778 443.276 L 413.708 443.457 L 401.117 455.495 L 387.605 466.382 L 387.778 443.276 Z" fill="#6c63ff" opacity="0.2"/>
  <path d="M 277.117 471.631 L 292.745 471.631 L 291.737 495.71 L 285.586 485.952 L 277.117 471.631 Z" fill="#6c63ff" opacity="0.2"/>
  <rect x="300.551" y="471.631" width="21.273" height="22.381" fill="#6c63ff" opacity="0.2"/>
  <path d="M 329.62 471.631 L 350.894 471.631 L 350.894 494.013 L 329.62 494.013 L 329.62 471.631 Z" fill="#6c63ff"/>
  <path d="M 358.7 471.631 L 381.007 471.813 L 364.622 483.125 L 358.7 487.298 L 358.7 471.631 Z" fill="#6c63ff" opacity="0.2"/>
</svg>